<svg xmlns="http://www.w3.org/2000/svg" width="14.161" height="26.192" viewBox="0 0 14.161 26.192"><defs><style>.a{fill:#fff;}</style></defs><g transform="translate(-22.077)"><path class="a" d="M35.7.005,32.308,0c-3.816,0-6.282,2.53-6.282,6.446V9.418H22.611a.534.534,0,0,0-.534.534v4.306a.534.534,0,0,0,.534.534h3.415V25.658a.534.534,0,0,0,.534.534h4.456a.534.534,0,0,0,.534-.534V14.793h3.993a.534.534,0,0,0,.534-.534l0-4.306a.534.534,0,0,0-.534-.534H31.55V6.9c0-1.211.289-1.826,1.866-1.826H35.7a.534.534,0,0,0,.534-.534v-4A.534.534,0,0,0,35.7.005Z"/></g></svg>