<svg xmlns="http://www.w3.org/2000/svg" width="26.491" height="25.314" viewBox="0 0 26.491 25.314"><defs><style>.a{fill:#fff;}</style></defs><g transform="translate(0 -9.558)"><path class="a" d="M26.491,25.078v9.794H20.813V25.734c0-2.3-.821-3.862-2.876-3.862a3.107,3.107,0,0,0-2.913,2.077,3.885,3.885,0,0,0-.188,1.384v9.539H9.155s.076-15.477,0-17.08h5.679v2.421c-.012.018-.026.038-.037.055h.037v-.055a5.639,5.639,0,0,1,5.118-2.822C23.69,17.39,26.491,19.832,26.491,25.078ZM3.214,9.558a2.96,2.96,0,1,0-.075,5.9h.038a2.961,2.961,0,1,0,.037-5.9ZM.337,34.872H6.015V17.792H.337Z"/></g></svg>