<svg xmlns="http://www.w3.org/2000/svg" width="29.923" height="24.313" viewBox="0 0 29.923 24.313"><defs><style>.a{fill:#fff;}</style></defs><g transform="translate(0 -48)"><g transform="translate(0 48)"><path class="a" d="M29.923,50.878a12.79,12.79,0,0,1-3.535.969,6.1,6.1,0,0,0,2.7-3.391,12.259,12.259,0,0,1-3.89,1.485,6.134,6.134,0,0,0-10.611,4.195,6.317,6.317,0,0,0,.142,1.4A17.364,17.364,0,0,1,2.083,49.118a6.136,6.136,0,0,0,1.885,8.2A6.058,6.058,0,0,1,1.2,56.562v.067a6.163,6.163,0,0,0,4.915,6.028,6.123,6.123,0,0,1-1.608.2,5.424,5.424,0,0,1-1.161-.1,6.193,6.193,0,0,0,5.732,4.273,12.326,12.326,0,0,1-7.606,2.616A11.49,11.49,0,0,1,0,69.56a17.27,17.27,0,0,0,9.411,2.753c11.288,0,17.46-9.351,17.46-17.456,0-.271-.009-.533-.022-.793A12.238,12.238,0,0,0,29.923,50.878Z" transform="translate(0 -48)"/></g></g></svg>