<svg xmlns="http://www.w3.org/2000/svg" width="32.971" height="32.971" viewBox="0 0 32.971 32.971"><defs><style>.a{fill:#fff;}</style></defs><path class="a" d="M22.668,0H10.3A10.3,10.3,0,0,0,0,10.3V22.668a10.3,10.3,0,0,0,10.3,10.3H22.668a10.3,10.3,0,0,0,10.3-10.3V10.3A10.3,10.3,0,0,0,22.668,0ZM29.88,22.668a7.22,7.22,0,0,1-7.212,7.212H10.3a7.22,7.22,0,0,1-7.212-7.212V10.3A7.22,7.22,0,0,1,10.3,3.091H22.668A7.22,7.22,0,0,1,29.88,10.3Z"/><g transform="translate(8.243 8.243)"><path class="a" d="M136.243,128a8.243,8.243,0,1,0,8.243,8.243A8.243,8.243,0,0,0,136.243,128Zm0,13.394a5.152,5.152,0,1,1,5.152-5.152A5.159,5.159,0,0,1,136.243,141.394Z" transform="translate(-128 -128)"/></g><g transform="translate(24.248 6.526)"><circle class="a" cx="1.098" cy="1.098" r="1.098"/></g></svg>