<svg xmlns="http://www.w3.org/2000/svg" xmlns:xlink="http://www.w3.org/1999/xlink" width="196" height="69.365" viewBox="0 0 196 69.365"><defs><style>.a,.d{fill:#fff;}.b{fill:url(#a);}.c{fill:url(#b);}.d{font-size:14px;font-family:Poppins-Medium, Poppins;font-weight:500;}</style><linearGradient id="a" x1="0.25" y1="0.065" x2="0.75" y2="0.935" gradientUnits="objectBoundingBox"><stop offset="0" stop-color="#78ffd6"/><stop offset="1" stop-color="#007991"/></linearGradient><linearGradient id="b" x1="0.184" y1="-0.047" x2="0.816" y2="1.047" xlink:href="#a"/></defs><g transform="translate(-246 -6636.635)"><g transform="translate(-875.601 6166)"><g transform="translate(1121.601 470.635)"><g transform="translate(0)"><path class="a" d="M689.007,363.85v7.26a1.582,1.582,0,0,1-1.745,1.745h-9.423v36.369a1.582,1.582,0,0,1-1.746,1.746h-7.678a1.582,1.582,0,0,1-1.746-1.746V372.855h-9.424a1.581,1.581,0,0,1-1.745-1.745v-7.26a1.581,1.581,0,0,1,1.745-1.746h30.017A1.582,1.582,0,0,1,689.007,363.85Z" transform="translate(-655.5 -362.104)"/><path class="b" d="M761.723,402.281a18.5,18.5,0,1,1,18.5,18.429A18.295,18.295,0,0,1,761.723,402.281Zm26.527,0a8.03,8.03,0,1,0-8.028,8.237A7.828,7.828,0,0,0,788.25,402.281Z" transform="translate(-732.401 -377.849)"/><path class="a" d="M934.068,397.744v20.243a1.581,1.581,0,0,1-1.745,1.746h-6.7a1.582,1.582,0,0,1-1.745-1.746v-1c-1.872,2.191-4.62,3.719-9.005,3.719-6.143,0-11.519-3.63-11.519-10.89s5.375-10.889,11.519-10.889c4.386,0,7.133,1.237,9.005,2.661v-3.15c0-3.42-1.4-4.956-4.328-4.956-2.164,0-3.491.838-4.049,2.024-.419.977-.768,1.536-1.815,1.536h-6.841a1.574,1.574,0,0,1-1.745-1.815c.907-7.539,7.329-11.378,14.45-11.378C927.228,383.852,934.068,388.32,934.068,397.744ZM923.877,409.82c0-2.164-1.885-3.49-5.306-3.49-3.211,0-4.747,1.466-4.747,3.49s1.536,3.49,4.747,3.49C921.992,413.31,923.877,411.845,923.877,409.82Z" transform="translate(-834.935 -377.849)"/><path class="a" d="M1058.408,409.262c0,8.028-6.84,11.449-14.52,11.449-7.12,0-13.543-3.212-14.38-10.611a1.5,1.5,0,0,1,1.675-1.814h6.842c1.047,0,1.4.558,1.884,1.465.559,1.187,1.885,1.885,3.979,1.885,2.932,0,4.049-.977,4.049-2.374,0-5.026-18.219-.419-18.219-13.962,0-7.888,6.84-11.448,14.17-11.448,6.492,0,12.845,3.211,13.682,10.611a1.5,1.5,0,0,1-1.675,1.814h-6.842c-1.046,0-1.4-.558-1.884-1.535a3.353,3.353,0,0,0-3.281-1.815c-2.583,0-3.7.978-3.7,2.373C1040.188,400.466,1058.408,395.649,1058.408,409.262Z" transform="translate(-926.254 -377.849)"/><path class="a" d="M1160.956,380.075v6.562a1.582,1.582,0,0,1-1.745,1.745h-3.84v23.105a1.581,1.581,0,0,1-1.745,1.745h-6.981a1.581,1.581,0,0,1-1.745-1.745V388.383h-3.839a1.582,1.582,0,0,1-1.745-1.745v-6.562a1.581,1.581,0,0,1,1.745-1.745h3.839v-9.424a1.582,1.582,0,0,1,1.745-1.746h6.981a1.581,1.581,0,0,1,1.745,1.746v9.424h3.84A1.581,1.581,0,0,1,1160.956,380.075Z" transform="translate(-1005.763 -365.765)"/><path class="c" d="M1224.04,479.761v-7.679a1.582,1.582,0,0,1,1.745-1.745h7.68a1.582,1.582,0,0,1,1.745,1.745v7.679a1.581,1.581,0,0,1-1.745,1.745h-7.68A1.581,1.581,0,0,1,1224.04,479.761Z" transform="translate(-1067.1 -440.46)"/></g></g></g><text class="d" transform="translate(246 6701)"><tspan x="0" y="0">to a new dine-in experience</tspan></text></g></svg>