<svg xmlns="http://www.w3.org/2000/svg" xmlns:xlink="http://www.w3.org/1999/xlink" width="463.238" height="470.768" viewBox="0 0 463.238 470.768"><defs><style>.a{fill:#d3b092;}.b{fill:url(#a);}.c{fill:url(#b);}.d{fill:url(#c);}.e{fill:url(#d);}.f{fill:url(#e);}.g{fill:url(#f);}.h{fill:url(#g);}.i{fill:url(#h);}.j{fill:url(#i);}.k{fill:url(#j);}.l{fill:url(#k);}.m{fill:url(#l);}.n{fill:url(#m);}.o{fill:url(#n);}.p{fill:url(#o);}.q{fill:url(#p);}.r{fill:url(#q);}.s{fill:url(#r);}.t{fill:url(#s);}.u{fill:url(#t);}.v{fill:url(#u);}.w{fill:url(#v);}.x{fill:url(#w);}.y{fill:url(#x);}.z{fill:url(#y);}.aa{fill:url(#z);}.ab{fill:url(#aa);}.ac{fill:url(#ab);}.ad{fill:url(#ac);}.ae{fill:url(#ad);}.af{fill:url(#ae);}.ag{fill:url(#af);}.ah{fill:#ffc380;}.ai{fill:#ededed;}.aj{fill:#e29764;}.ak{fill:#fcede0;}.al{fill:#d3d3d3;}.am{fill:#fff;}.an{fill:#c1c1c1;}.ao{fill:#f4d5b5;}.ap{fill:#adadad;}.aq{fill:#848484;}.ar{fill:#a2a2a2;}.as{fill:url(#ag);}</style><linearGradient id="a" x1="0.003" y1="0.533" x2="1.005" y2="0.533" gradientUnits="objectBoundingBox"><stop offset="0" stop-color="#6ac9c8"/><stop offset="0.14" stop-color="#6cc9c4"/><stop offset="0.28" stop-color="#72cab8"/><stop offset="0.42" stop-color="#7bcca3"/><stop offset="0.57" stop-color="#88cf86"/><stop offset="0.71" stop-color="#99d261"/><stop offset="0.86" stop-color="#aed634"/><stop offset="1" stop-color="#c6da00"/><stop offset="1" stop-color="#d7df23"/></linearGradient><linearGradient id="b" x1="0.018" y1="0.541" x2="1.013" y2="0.541" xlink:href="#a"/><linearGradient id="c" x1="-0.023" y1="0.587" x2="0.977" y2="0.587" gradientUnits="objectBoundingBox"><stop offset="0" stop-color="#ff77ad"/><stop offset="1" stop-color="#9a559f"/></linearGradient><linearGradient id="d" x1="-0.011" y1="0.546" x2="0.988" y2="0.546" gradientUnits="objectBoundingBox"><stop offset="0" stop-color="#ed1846"/><stop offset="0.1" stop-color="#ed204c"/><stop offset="0.24" stop-color="#ee365b"/><stop offset="0.43" stop-color="#ef5a75"/><stop offset="0.64" stop-color="#f08c99"/><stop offset="0.87" stop-color="#f1cbc6"/><stop offset="1" stop-color="#f2f2e2"/></linearGradient><linearGradient id="e" x1="-0.023" y1="0.553" x2="0.98" y2="0.553" xlink:href="#a"/><linearGradient id="f" x1="0.003" y1="0.561" x2="0.999" y2="0.561" xlink:href="#a"/><linearGradient id="g" x1="-0.018" y1="0.575" x2="0.982" y2="0.575" xlink:href="#c"/><linearGradient id="h" x1="0.017" y1="0.581" x2="1.018" y2="0.581" xlink:href="#d"/><linearGradient id="i" x1="-0.019" y1="0.559" x2="0.978" y2="0.559" xlink:href="#a"/><linearGradient id="j" x1="0.002" y1="0.563" x2="1.001" y2="0.563" gradientUnits="objectBoundingBox"><stop offset="0" stop-color="#cce0f4"/><stop offset="0.23" stop-color="#96cced"/><stop offset="0.61" stop-color="#46ade2"/><stop offset="0.87" stop-color="#139adb"/><stop offset="1" stop-color="#0093d8"/></linearGradient><linearGradient id="k" x1="0.02" y1="0.553" x2="1.025" y2="0.553" xlink:href="#a"/><linearGradient id="l" x1="-0.001" y1="0.592" x2="0.997" y2="0.592" xlink:href="#d"/><linearGradient id="m" x1="-0.032" y1="0.574" x2="0.967" y2="0.574" gradientUnits="objectBoundingBox"><stop offset="0" stop-color="#ffe100"/><stop offset="0.11" stop-color="#ffc51b"/><stop offset="0.27" stop-color="#ffa63b"/><stop offset="0.43" stop-color="#ff8d54"/><stop offset="0.61" stop-color="#ff7b65"/><stop offset="0.79" stop-color="#ff7070"/><stop offset="1" stop-color="#ff6d73"/></linearGradient><linearGradient id="n" x1="0.023" y1="0.553" x2="1.02" y2="0.553" xlink:href="#m"/><linearGradient id="o" x1="-0.01" y1="0.663" x2="0.991" y2="0.663" xlink:href="#a"/><linearGradient id="p" x1="-0.006" y1="0.569" x2="0.995" y2="0.569" xlink:href="#a"/><linearGradient id="q" x1="-0.071" y1="0.566" x2="0.926" y2="0.566" xlink:href="#a"/><linearGradient id="r" x1="-0.028" y1="0.612" x2="0.975" y2="0.612" xlink:href="#a"/><linearGradient id="s" x1="0.026" y1="0.685" x2="1.025" y2="0.685" xlink:href="#c"/><linearGradient id="t" x1="-0.05" y1="0.628" x2="0.953" y2="0.628" xlink:href="#m"/><linearGradient id="u" x1="0.044" y1="0.643" x2="1.04" y2="0.643" xlink:href="#j"/><linearGradient id="v" x1="0.037" y1="0.652" x2="1.038" y2="0.652" xlink:href="#c"/><linearGradient id="w" x1="-0.047" y1="0.712" x2="0.952" y2="0.712" xlink:href="#m"/><linearGradient id="x" x1="0.036" y1="0.826" x2="1.037" y2="0.826" xlink:href="#m"/><linearGradient id="y" x1="-0.031" y1="0.782" x2="0.968" y2="0.782" xlink:href="#c"/><linearGradient id="z" x1="-0.068" y1="0.725" x2="0.933" y2="0.725" xlink:href="#j"/><linearGradient id="aa" x1="0.049" y1="0.659" x2="1.047" y2="0.659" xlink:href="#c"/><linearGradient id="ab" x1="0.012" y1="0.666" x2="1.013" y2="0.666" xlink:href="#j"/><linearGradient id="ac" x1="0.023" y1="0.746" x2="1.025" y2="0.746" xlink:href="#j"/><linearGradient id="ad" x1="-0.076" y1="0.845" x2="0.925" y2="0.845" xlink:href="#j"/><linearGradient id="ae" x1="0.048" y1="0.799" x2="1.045" y2="0.799" xlink:href="#m"/><linearGradient id="af" x1="-0.013" y1="0.702" x2="0.988" y2="0.702" xlink:href="#c"/><linearGradient id="ag" x1="0.698" y1="0.056" x2="0.362" y2="1.218" gradientUnits="objectBoundingBox"><stop offset="0" stop-color="#ff1d25"/><stop offset="0.66" stop-color="#ff5d81"/><stop offset="1" stop-color="#ff7bac"/></linearGradient></defs><g transform="translate(0 11)"><g transform="translate(0 -11)"><ellipse class="a" cx="5.817" cy="5.817" rx="5.817" ry="5.817" transform="translate(170.393 371.613)"/><path d="M227.33,465.36a6.47,6.47,0,1,1,6.47-6.47,6.47,6.47,0,0,1-6.47,6.47Zm0-11.641a5.171,5.171,0,1,0,5.179,5.171A5.171,5.171,0,0,0,227.33,453.719Z" transform="translate(-51.12 -81.46)"/><path d="M535.172,472.359v.676c-.269,4.288-2.444,7.438-5.248,7.576s-5.033-2.6-5.379-7.246a54.041,54.041,0,0,0-10.289-28.2c-6.547-9.036-15.114-12.848-26.287-10.2-8.153,1.929-16.321,3.842-24.589,5.294-14.6,2.628-26.833-1.829-35.861-13.593-2.305-2.974-3.427-7.231-3.95-11.057-.546-3.98,2.305-5.74,6.07-4.234a64.528,64.528,0,0,1,8.214,4.4,21.505,21.505,0,0,1,3.212,2.4c9.013,7.646,18.15,8.983,28.2,1.537a35.746,35.746,0,0,1,18.887-7.215c13.685-.9,23.667,5.778,31.773,16.06,7.553,9.582,10.7,20.977,13.355,32.557.845,3.7,1.422,7.446,2.121,11.173Zm-108.214-59.52c-1.2,5.686.876,9.413,3.888,12.648,8.26,8.86,18.442,12.294,30.375,10.051,8.329-1.575,16.574-3.6,24.888-5.287,13.654-2.766,24.435,1.591,32.05,13.355,5.717,8.821,8.368,18.618,9.075,29.03a40.86,40.86,0,0,0,1.176,5.525c3.665-2.228,3.073-4.964,2.543-7.346-1.537-6.854-3.212-13.662-4.956-20.47a56.967,56.967,0,0,0-9.582-19.763c-9.405-12.817-24.143-19.548-41.048-9.689-3.281,1.913-6.6,3.758-9.989,5.486-5.763,2.951-11.641,3.135-17.289-.161-4.019-2.351-7.753-5.194-11.687-7.684C433.505,416.619,430.455,414.906,426.958,412.839Z" transform="translate(-89.572 -69.711)"/><path d="M339.3,473.762c.653,16.367-5.563,29.629-18.442,39.649-4.372,3.4-9.259,5.963-15.161,4.925-4.7-.83-7.1-4.2-6.508-8.913.984-7.815,5.379-13.831,10.358-19.487A19.5,19.5,0,0,1,313.662,486c5.74-3.527,6.7-9.09,6.8-15.068.077-4.472-.085-8.959.177-13.424a18.12,18.12,0,0,1,1.591-6.4c1.253-2.743,3.389-4.68,6.739-4.68a6.351,6.351,0,0,1,6.424,4.5,164.71,164.71,0,0,1,3.842,16.467C339.665,469.443,339.311,471.634,339.3,473.762Zm-3.135-7.807c-.768-4.057-1.483-8.89-2.828-13.531-.4-1.391-2.674-3.143-4.042-3.074-1.583.054-3.581,1.591-4.534,3.074a12.74,12.74,0,0,0-1.46,5.709c-.231,3.788-.062,7.6-.146,11.4-.184,7.815-2.052,14.507-8.706,19.94-4.3,3.511-7.208,8.936-10.1,13.877-1.537,2.6-3.074,6.37-.131,8.99s6.431.976,9.436-.538a36.065,36.065,0,0,0,19.387-24.389C334.709,480.677,335.093,473.7,336.169,465.955Z" transform="translate(-69.242 -80.073)"/><path d="M64.219,56.354a19.671,19.671,0,0,1-5.448,14.308A62.239,62.239,0,0,1,50.542,78c-8.522,6.147-17.174,4.357-24.036-4.61-11.71-15.3.2-38.074,17.12-40.318a12.241,12.241,0,0,1,5.824,1.03C57.434,37.344,64.319,47.855,64.219,56.354Zm-4.71.822c.154-7.492-3.373-13.17-8.906-17.612-2.059-1.66-4.864-3.343-7.338-3.366-9.144-.061-19.271,12.586-17.673,21.669,1.629,8.952,6.916,14.938,15.483,17.719a9.628,9.628,0,0,0,6.608-.4A20.331,20.331,0,0,0,59.54,57.176Z" transform="translate(1.339 7.188)"/><path d="M554.667,169.538c1.491,3.927,2.774,7.354,4.08,10.758.768,2.052.522,3.227-2.005,3.8-5.379,1.214-10.758,2.728-16.075,4.226-2.413.676-3.842.238-4.265-2.5-.438-2.62-1.245-5.171-2.005-8.207-2.774.615-5.486,1.022-8.076,1.844-2.4.768-3.734-.115-4.334-2.251-1.4-4.918-2.8-9.843-3.842-14.853-.184-.93,1.206-2.866,2.259-3.235a71.8,71.8,0,0,1,8.852-2.006c-.83-3.343-1.683-6.547-2.413-9.782-.83-3.634,0-5.025,3.627-5.709,4.388-.822,8.8-1.491,13.193-2.228,2.62-.438,3.972.768,4.433,3.281s1.083,5.187,1.706,8.122c2.136-.346,4.065-.692,6.009-.976,3.581-.523,4.864.3,5.755,3.842.853,3.343,1.606,6.708,2.4,10.066.461,1.959,0,3.112-2.305,3.55A56.222,56.222,0,0,0,554.667,169.538Zm3.542-16.9c-2.589.461-4.8.73-6.916,1.268-2.551.638-3.842-.461-4.38-2.782a65.059,65.059,0,0,0-1.537-6.47,2.812,2.812,0,0,0-2.305-1.445c-4.134.815-8.214,1.89-12.648,2.966.668,3.312,1.2,6.6,2.013,9.812.661,2.613-.069,4.08-2.759,4.61s-5.578,1.214-8.506,1.867c1.368,4.995,2.651,9.674,4.019,14.646,2.728-.707,5.3-1.283,7.822-2.059,3.289-1.007,4.165-.622,4.964,2.736.63,2.659,1.13,5.379,1.721,8.191l16.137-4.334c-1.345-3.427-2.467-6.554-3.8-9.6-1.183-2.7-.361-4.2,2.367-5.033,2.182-.668,4.3-1.537,6.355-2.305-.93-4.28-1.714-8.053-2.551-12.1Z" transform="translate(-100.887 -8.942)"/><path d="M191.31,17.008c-.907,4.165-1.675,7.277-2.359,10.4-2.236,10.2.254,18.526,9.474,24.289a115.664,115.664,0,0,1,10.512,7.169,39.264,39.264,0,0,1,7.292,7.192,6.916,6.916,0,0,1,.061,8.452c-1.829,2.474-4.4,1.975-7.015,1.345-13.493-3.212-24.758-9.666-30.836-22.668s-3.173-25.426,4.165-37.075c1.314-2.09,3.45-3.7,5.924-2.543C189.926,14.2,190.695,16.193,191.31,17.008Zm-2.543-.123-1.076-.638c-.953.768-2.259,1.314-2.8,2.305-4.864,8.883-8.245,18.134-5.463,28.431,3.719,13.831,13.647,21.515,26.517,25.926,2.4.814,7.008.876,7.761-.392,1.591-2.689-1.176-5.325-3.488-7.062-4.019-3.012-8.452-5.517-12.34-8.652a50.845,50.845,0,0,1-9.474-9.267c-4.818-6.631-3.719-14.115-1.767-21.515C187.437,23.032,188.1,19.958,188.766,16.885Z" transform="translate(-40.534 -0.934)"/><path d="M61,354.752c.715-17.965,8.844-31.274,21.653-41.908a55.435,55.435,0,0,1,12.863-7.592c4.272-1.906,8.053-.2,9.643,3.327s0,7.5-4.28,9.551a46.371,46.371,0,0,1-9.036,3.327c-8.629,2.129-11.895,9.828-12.187,17.335A137.337,137.337,0,0,1,77.62,356.3c-.33,1.944-1.729,3.842-2.981,5.479-1.744,2.305-4.08,4.073-7.2,3.174s-4.949-3.35-5.794-6.424A29.465,29.465,0,0,1,61,354.752Zm5.064-1.652a41.249,41.249,0,0,0,1.03,5.963c.838,2.712,2.9,3.273,4.764,1.114a15.281,15.281,0,0,0,3.673-6.562c1.091-5.548,1.537-11.226,2.182-16.866.768-7.423,4.172-13.063,11.126-16.19,3.028-1.36,6.193-2.413,9.259-3.7,4.28-1.783,6.193-4.5,5.1-7.085-1.145-2.743-4.61-3.373-8.8-.868-16.5,9.835-26.955,23.743-28.331,44.19Z" transform="translate(-14.096 -47.193)"/><path d="M459.5,124.2c-10.542-.061-19.571-5.871-22.476-13.585a10.544,10.544,0,0,1,.269-9.036C444.977,86.917,464.6,84,475.582,95.147c5.072,5.156,5.978,11.687,3.742,18.38-2.136,6.385-7.292,9.221-13.739,9.989C463.157,123.8,460.729,124.054,459.5,124.2Zm2.451-2.7c.83,0,2.059.077,3.289,0,4.979-.338,9.144-3.143,10.189-6.823,2.374-8.329-2.421-18.088-10.489-21.238-8.675-3.389-15.368.438-21.408,6.147-3.389,3.173-3.757,5.947-2.182,10.281,2.6,7.115,12.84,12.387,20.6,11.626Z" transform="translate(-100.979 2.855)"/><path d="M203.079,555.238a69.106,69.106,0,0,0,1.475,6.777c.722,2.228-.246,3.127-2.175,3.542-4.441.938-8.875,2-13.362,2.636-.853.115-2.482-1.322-2.835-2.351a50.752,50.752,0,0,1-1.406-7.185c-2.428.7-4.81,1.268-7.092,2.083s-3.519-.154-4.019-2.159c-1.222-4.964-2.367-9.989-3.373-14.969-.5-2.513.453-4.134,3.366-4.088,1.621,0,3.25-.185,5.125-.315-.53-2.659-.914-4.941-1.445-7.184s.576-3.4,2.636-3.758c4.71-.822,9.451-1.537,14.162-2.351,2.052-.361,2.789.5,3.074,2.436.323,2.4.907,4.749,1.452,7.507,3.358-.914,6.447-1.675,9.474-2.62,1.967-.607,2.981.092,3.458,1.944,1.2,4.61,2.49,9.221,3.565,13.877.53,2.305.2,4.057-2.912,4.342A82.353,82.353,0,0,0,203.079,555.238ZM189.133,566c2.182-.323,3.934-.568,5.678-.845,7.968-1.252,8.061-1.276,6.055-9.006-.484-1.906-.161-2.7,1.7-3.073,3.473-.676,6.916-1.429,10.435-2.159-1.391-4.933-2.736-9.72-4.111-14.6-3.158.538-6.209,1-9.221,1.606-1.952.392-2.928-.23-3.258-2.221-.369-2.305-.953-4.51-1.46-6.823L180.8,531.341c.538,2.474,1.045,4.61,1.452,6.793.361,1.9-.138,3.343-2.351,3.611l-6.854.838,3.8,16.283a57.215,57.215,0,0,0,7.354-2.474c2.774-1.368,3.658-.215,4,2.305.292,2.243.584,4.541.961,7.269Z" transform="translate(-39.379 -98.464)"/><path d="M381.654,66.464a5.5,5.5,0,0,1,5.963,3.074c1.229,2.7.108,5.433-2.067,7.238a40.8,40.8,0,0,1-8.491,5.817c-10.465,4.91-15.645,13.462-17.6,24.4-.492,2.743-1.537,5.056-4.533,5.44s-4.826-1.36-6.109-3.842c-2.559-4.91-1.737-9.989-.63-15.045C351.863,76.761,368.822,67.187,381.654,66.464Zm-30.6,36.2a33.938,33.938,0,0,0,1.291,5.555,3.113,3.113,0,0,0,2.505,1.621c.761-.123,1.575-1.429,1.844-2.367.707-2.436,1.153-4.956,1.66-7.446,1.767-8.7,6.754-14.884,14.6-18.856a69,69,0,0,0,6.816-3.55,19.777,19.777,0,0,0,4.718-4.18c1.821-2.305.561-5.056-2.305-4.779-3.788.361-7.945.722-11.165,2.49C358.687,77.9,353.177,89.209,351.056,102.663Z" transform="translate(-80.364 7.94)"/><path d="M506.33,316.907c10.1.953,22.453,7.062,22.2,19.694A20.264,20.264,0,0,1,508.42,356.58c-9.267-.062-20.793-11.526-20.216-20.747C488.88,325.137,497.786,316.585,506.33,316.907Zm16.9,19.041c0-8.391-7.891-15.675-17.128-15.76-7.284-.069-15.237,8.229-15.26,15.921,0,8.368,8.637,17.035,17.043,17.066,8.791.031,15.307-7.284,15.337-17.228Z" transform="translate(-113.032 -50.073)"/><path d="M379,554.776a10.949,10.949,0,0,1-2.659-.469c-13.063-5.056-22.683-14.653-23.582-30.167-.223-3.711-1.061-7.53-.438-11.1.515-3,2.551-5.84,4.249-8.537,1.437-2.305,3.7-3.8,6.547-2.812s3.8,3.635,3.765,6.455a20.744,20.744,0,0,1-.768,5.594c-2.113,7.069.507,12.648,5.294,17.573,3.266,3.366,6.754,6.524,9.851,9.989a19.571,19.571,0,0,1,3.673,6.263C386.508,551.964,384.187,554.876,379,554.776Zm-26.387-37.782.768.476c.238,1.414.546,2.828.714,4.249,1.537,13.17,8.66,22.406,20.347,28.154,1.936.953,4.526.569,6.808.768-.853-2.067-1.291-4.487-2.651-6.147-2.474-3-5.525-5.5-8.283-8.276-6.439-6.47-9.4-13.831-6.47-23.052a14.433,14.433,0,0,0,.292-6.562c-.461-2.689-3.473-3.565-4.995-1.352C356.633,508.949,354.765,513.06,352.614,516.994Z" transform="translate(-81.515 -92.8)"/><path d="M23.857,270.659c3.358-.615,6.355-1.206,9.374-1.7,1.929-.315,2.8.638,3.074,2.559.669,4.71,1.368,9.421,2.305,14.085.384,1.906-.154,2.766-1.913,3.073-2.305.4-4.61.876-6.916,1.107-1.875.177-2.551,1.053-2.305,2.835.238,2.09.361,4.2.676,6.285s-.569,3.112-2.536,3.55q-5.532,1.222-11.027,2.574c-2.474.607-3.681-.415-3.742-2.82-.077-2.774,0-5.555,0-8.675-2.782.576-5.041,1.129-7.323,1.5-2.9.461-3.465-.4-3.327-3.212a92.852,92.852,0,0,0-.207-11.326c-.246-3.4.922-5.056,4.457-4.972a14.243,14.243,0,0,0,3.312-.768c-.592-2.136-1.237-4.126-1.683-6.147s0-3.289,2.42-3.842c3.435-.768,6.739-2.151,10.1-3.25,3.074-1.007,3.888-.423,4.265,2.866C23.142,266.441,23.519,268.477,23.857,270.659ZM36.781,286.3c-.922-5.256-1.806-10.273-2.712-15.476-3.189.769-5.863,1.468-8.56,2.059-1.775.384-3.258.407-3.5-2.151a73.983,73.983,0,0,0-1.491-7.607L9.127,266.963c.853,2.7,1.7,4.995,2.305,7.361.546,2.082,0,3.442-2.6,3.442a41.1,41.1,0,0,0-5.379.63L3.4,291.683l7.346-1.775c2.551-.638,3.927.338,3.965,2.966.046,2.782,0,5.556,0,8.621,3.235-.584,6.147-1.276,9.1-1.591,2.221-.246,2.451-1.421,2.228-3.2s-.307-3.773-.538-5.655c-.254-2.075.546-3.074,2.674-3.3C30.98,287.418,33.8,286.811,36.781,286.3Z" transform="translate(0.041 -37.143)"/><path d="M523.565,65.4c-1.468,1.283-2.9,2.167-4.38,0-6.2-9.121-12.456-18.2-18.611-27.347-2.835-4.211-2.2-5.617,2.866-6.063,7.984-.715,15.99-1.214,23.982-1.844,1.322-.1,2.613-.453,3.934-.63,3.181-.43,4.019.476,2.912,3.465-1.537,4.065-3.435,7.984-4.764,12.095-2.182,6.754-4.026,13.616-6.009,20.432ZM503.049,36.973l17.189,24.5c3.25-9.175,6.324-17.827,9.513-26.825Z" transform="translate(-100.674 31.348)"/><path d="M425.895,506.2a17.809,17.809,0,0,1-.292,2.659c-.469,1.775-1.437,2.451-3.166,1.229-8.114-5.724-16.259-11.411-24.366-17.151-2.782-1.975-3.442-4.695-1.368-7.922a72.985,72.985,0,0,1,7.2-9.221c4.718-5.233,9.62-10.289,14.484-15.368,2.305-2.413,3.665-2.113,4.61,1.06a20.65,20.65,0,0,1,1.022,5.218c.53,13.17.968,26.341,1.429,39.511Zm-4.779-.584.169-43.376-1.053-.161c-2.574,2.743-5.31,5.379-7.684,8.245-4.119,4.987-8.068,10.112-11.995,15.253-1.406,1.844-1.268,3.412.914,5.01C408.176,495.537,414.761,500.739,421.115,505.618Z" transform="translate(-91.564 -82.946)"/><path d="M78.122,131.94c10.865,0,19.21,5.156,26.264,12.786a17.044,17.044,0,0,1,2.7,4.2c1.06,2.167,1.921,4.956-.346,6.385-1.783,1.122-4.5.984-6.8.945-1.06,0-2.159-1.06-3.127-1.8a38.352,38.352,0,0,0-18.6-7.546c-4.61-.6-8.122,2.105-11,5.379a14.731,14.731,0,0,1-12.233,5.048c-4.388-.146-5.955-2.72-4.08-6.754a12.609,12.609,0,0,1,2.351-3.619c5.425-5.379,10.051-11.841,17.942-14A52.921,52.921,0,0,1,78.122,131.94Zm3.3,2.589c-10.9-.061-24.158,8.352-27.947,16.229-1.114,2.305.223,3.189,1.913,2.858A21.677,21.677,0,0,0,62.116,151c2.49-1.46,4.61-3.466,7.008-5.141,4.18-2.974,8.683-3.473,13.255-1.114,5.709,2.943,11.226,6.255,17,9.067,1.644.768,4.388,1.222,5.725.377,2.182-1.368.523-3.727-.546-5.287C98.5,140,90.378,134.614,81.426,134.529Z" transform="translate(-11.578 -7.237)"/><path d="M521.308,255.758c-2.974.146-5.51-1.46-7.177-4.418s-3.443-6.017-4.879-9.159c-3.158-6.916-8.867-9.9-16.014-10.934-2.789-.407-6.424-.292-6.916-3.888-.568-3.842,3.143-4.61,5.794-5.863a17.162,17.162,0,0,1,16.1.707,60.226,60.226,0,0,1,19.771,17.274,24.087,24.087,0,0,1,2.451,5.379C532.457,250.034,528.192,255.95,521.308,255.758Zm-33.1-29.061-.154,1.383c2.8.615,5.586,1.591,8.452,1.783,6.977.453,12.433,3.127,15.8,9.482,1.937,3.65,3.842,7.3,5.924,10.881a4.592,4.592,0,0,0,5.686,2.367c2.451-.745,4.826-2.19,4.441-5.071-.354-2.628-1.06-5.617-2.666-7.592a53.787,53.787,0,0,0-21.738-15.7C498.156,221.88,493.092,223.839,488.205,226.7Z" transform="translate(-112.588 -27.59)"/><path d="M420.966,28.7c-.046,8.714-3.9,14.938-10.435,16.9-2.39.768-4.61.868-6.408-1.291s-.907-4.073.307-6.147c2.7-4.61,1.821-9.413,1.053-14.308a110.924,110.924,0,0,1-1.06-11.956,5.825,5.825,0,0,1,.907-3.75c1.429-1.675,3.258-3.9,5.1-4.08,1.575-.154,3.957,1.883,5.01,3.558C419.491,14.005,420.39,21.351,420.966,28.7Zm-2.405.123c-.123-8.206-1.268-14.285-4.472-19.786-.715-1.237-2.305-1.967-3.527-2.928-.907,1.445-2.167,2.789-2.62,4.372a12.846,12.846,0,0,0,0,4.995c.4,3.2,1.022,6.385,1.5,9.582a20.174,20.174,0,0,1-1.537,12.41c-.707,1.429-.715,3.2-1.045,4.818a40.344,40.344,0,0,0,5.563-1.276,6.989,6.989,0,0,0,2.443-2.228A15.181,15.181,0,0,0,418.561,28.828Z" transform="translate(-93.328 -0.942)"/><path d="M203.45,113.467a24.435,24.435,0,0,1-.845,3.473c-1.583,4.272-5.34,5.279-8.668,2.136a13.616,13.616,0,0,1-3.527-5.133,15.045,15.045,0,0,0-9.121-9.574c-4.242-1.721-7.945-4.165-9.221-8.983-.937-3.473.315-5.7,3.465-6.309C187.237,86.834,203.757,100.8,203.45,113.467Zm-3.2-3.158c-.438-9.866-12.294-20.048-22.768-19.064-.822.077-2.159.53-2.259,1.007a3.2,3.2,0,0,0,.822,2.636,28.839,28.839,0,0,0,5.5,3.719,19.371,19.371,0,0,1,10.642,12.648,10.888,10.888,0,0,0,1.537,3.973c1.083,1.229,2.728,1.959,4.134,2.9a35.97,35.97,0,0,0,2.305-4.38c.33-.884.069-1.99.069-3.442Z" transform="translate(-39.749 -3.615)"/><path d="M538.1,338.876a44.288,44.288,0,0,0-7.922-19.156c-7.853-11.349-17.55-13.432-29.468-6.478l-1.352.768c-.184-.376-.4-.684-.346-.73,9.067-9.259,16.405-12.01,26.256-4.772,8.622,6.332,14.231,14.722,14.6,25.834a21.4,21.4,0,0,1-.891,4.695Z" transform="translate(-115.538 -47.177)"/><path d="M63.385,28.55c3.75.069,6.47,2.882,9.321,5.11a52.519,52.519,0,0,1,7.154,7.046c5.709,6.608,5.148,14.6,4.718,22.568-.315,5.771-2.989,10.12-7.607,13.462-4.818,3.481-9.536,7.085-14.3,10.642l-.861-.968A21.788,21.788,0,0,1,63.347,84.8c4.441-3.9,9.067-7.615,13.255-11.78a11.493,11.493,0,0,0,2.774-6.147c.661-3.842.546-7.792,1.083-11.657.822-5.809-.492-10.919-4.61-15.053C71.861,36.211,67.627,32.5,63.385,28.55Z" transform="translate(-7.924 8.228)"/><path d="M135.084,502.063c.184,7.054-12.771,18.618-19.779,17.673a7.53,7.53,0,0,1-6.147-10.6c2.09-5.094,5.54-8.844,10.95-10.481,2.651-.768,5.333-1.575,8.045-2.159A5.519,5.519,0,0,1,135.084,502.063Zm-19.548,14.6c4.526-.077,16.175-10.319,16.959-15.007.292-1.706,0-2.927-2.305-2.105-4.18,1.537-8.583,2.513-12.571,4.4a17.543,17.543,0,0,0-6.393,5.548C109.019,512.582,111.74,516.724,115.535,516.662Z" transform="translate(-25.094 -91.63)"/><path d="M471.369,54.324a4.833,4.833,0,0,1-.945,1.929c-.284.254-1.36-.2-1.967-.546-6.57-3.75-13.147-7.5-19.663-11.357A17.9,17.9,0,0,1,445.82,41.5c1-.961,1.829-2.267,3.012-2.835,4.718-2.259,9.543-4.3,14.338-6.393,2.005-.876,4-.868,4.5,1.644C469.01,40.554,470.109,47.255,471.369,54.324ZM450.715,41.845l17.058,9.374c-.891-5.625-1.76-11.119-2.666-16.9Z" transform="translate(-103.221 15.969)"/><path d="M271.486,538.59a35.3,35.3,0,0,1,5.379,3.4c1.952,1.683,1.767,3.842.315,6.017-2.029,3.027-3.842,6.147-5.878,9.221a22.165,22.165,0,0,1-3.174,3.842c-2.205,2.067-4.733,3.343-7.868,2.059-3.481-1.437-4.326-4.779-4.119-7.684a27.808,27.808,0,0,1,3-10.127C261.4,540.826,265.792,539.335,271.486,538.59ZM263.08,561c2.8-.768,4.411-3.073,5.855-5.855a44.908,44.908,0,0,1,5-7.73c2.151-2.628,2.021-4.088-1.137-5.456-3.842-1.667-9.451.838-11.18,5.379a42.855,42.855,0,0,0-2.305,9.351C259.046,558.83,259.668,561,263.08,561Z" transform="translate(-59.284 -101.418)"/><path d="M413.946,575.335c-7.323.938-16.036-10.389-15.591-16.075.231-2.9.961-5.709,4.134-6.631s4.7,1.467,6.593,3.488c2.052,2.2,4.664,3.842,7.046,5.74.161.123.438.085.646.161,5.579,2.005,7.684,4.4,7.015,7.914C423.22,572.845,418.656,575.381,413.946,575.335Zm.407-2.628a5.023,5.023,0,0,0,2.405-.346,42.317,42.317,0,0,0,4.334-3.657c-1.322-1.329-2.459-2.943-4-3.942-3.381-2.213-6.954-4.149-10.489-6.147a32.875,32.875,0,0,0-3.542-1.537c-.476,1.291-1.283,2.566-1.352,3.88C401.406,566.875,407.553,572.722,414.353,572.707Z" transform="translate(-92.224 -104.622)"/><path d="M264.42,87.7c4.165-5.379,8.206-10.665,12.333-15.883,1.852-2.351,3.3-2.305,4.388.277,2.021,4.826,3.842,9.728,5.548,14.676.6,1.767.469,3.919-2.251,3.727-6.324-.453-12.632-1.122-18.949-1.737C265.234,88.7,265.019,88.273,264.42,87.7Zm13.508-13.954-9.7,12.356,14.6.768Z" transform="translate(-61.209 7.086)"/><path d="M46.64,526.309,70.068,512.87c.392,1.675.822,3.389,1.206,5.117.768,3.243,1.537,6.478,2.113,9.759.353,2.067-.676,3.189-2.9,2.866-6.839-.991-13.67-1.975-20.5-3.02A22.562,22.562,0,0,1,46.64,526.309Zm24.1.492c-.692-3.565-1.345-6.954-2-10.312l-14.845,8.583Z" transform="translate(-10.77 -95.461)"/><path d="M11.8,153.982a11.357,11.357,0,0,1,10.227,4.48c2.467,3.2,2.513,5.809-.254,8.652a40.652,40.652,0,0,1-6.147,5.148c-3.112,2.121-6.024,1.706-8.23-1.337a29.969,29.969,0,0,1-4.1-7.584C1.458,158.04,4.985,154.167,11.8,153.982Zm.523,14.845c3.711,0,8.114-3.942,8.014-7.154-.092-2.843-3.673-5.7-7.684-5.448-4.2.269-7.484,1.729-7.592,4.9-.123,3.819,3.573,7.738,7.261,7.73Z" transform="translate(-0.62 -12.328)"/><path d="M303.263,34.548c-5.556-.161-11.034-5.517-10.973-11,0-1.322.638-3.4,1.537-3.8,3.658-1.537,7.53-3.535,11.349-3.588,3.542-.046,4.549,4.211,5.479,7.2C312.33,28.716,308.2,34.686,303.263,34.548Zm.246-16.206c-5.379.553-8.176,2.351-8.083,4.81.138,4,3.55,7.008,8.26,7.015,2.72,0,5.225-2.305,5.1-4.718C308.626,22.292,305.66,18.3,303.508,18.342Z" transform="translate(-67.663 19.578)"/><path d="M440,506.227a10.348,10.348,0,0,1-.876-2.083c-.569-13.616-1.137-27.232-1.537-40.856,0-.838.96-1.706,1.475-2.559.715.876,1.959,1.691,2.059,2.628a136.752,136.752,0,0,1,1.168,16.021c-.085,7.469-.768,14.938-1.237,22.4A33.085,33.085,0,0,1,440,506.227Z" transform="translate(-101.315 -83.385)"/><path d="M480.57,493.951c.092-6.408,3.842-11.265,8.591-11.073,3.611.146,7.684,4.948,7.584,8.89-.154,5.286-4.8,10.489-9.374,10.512C483.482,502.3,480.5,498.646,480.57,493.951Zm12.748-3.45-4.088-5.448a71.332,71.332,0,0,0-5.755,4.464c-.615.569-.661,1.852-.768,2.835-.23,2.436,0,4.979,2.636,5.863,2.812.938,4.979-.768,6.432-3.035C492.472,494.1,492.626,492.691,493.317,490.5Z" transform="translate(-102.789 -86.393)"/><path d="M522.876,384.959c.061-5.233,5.625-9.459,10.627-7.853a30.558,30.558,0,0,1,7.146,3.273c3.442,2.221,4.61,5.3,3.581,8.145a7.782,7.782,0,0,1-8.452,4.649,50.215,50.215,0,0,1-8.4-1.944A6.1,6.1,0,0,1,522.876,384.959Zm12.525,6.478.43-.768c.661-.038,1.483.161,1.967-.146,1.6-1.022,3.934-1.982,4.357-3.435s-.769-4.142-2.052-4.956a17.437,17.437,0,0,0-8.176-2.735c-1.491-.069-3.55,2.029-4.449,3.65-.561,1.007.092,3.519,1.06,4.357C530.514,389.116,533.081,390.138,535.4,391.436Z" transform="translate(-106.224 -61.817)"/><path d="M526.569,73.357c-.438,1.975-1.729,4.288-2.305,6.823L505.614,62.3c-.254.768-.438,1.068-.369,1.145,5.748,6.224,11.472,12.463,17.289,18.618,1.975,2.09,3.972,1.66,4.895-.953,1.9-5.333,3.527-10.758,5.148-16.182.208-.669-.261-1.537-.415-2.305l-1.114-.254Z" transform="translate(-102.14 23.733)"/><path d="M112.777,327.62c-1.176.653-2.367,1.283-3.542,1.952-3.074,1.752-6.278,3.373-9.221,5.325-5.21,3.419-7.131,8.352-5.909,14.454.814,4.057,1.537,8.137-.453,12a12.533,12.533,0,0,1-4.042,4.372c5.248-5.671,3.2-11.972,2.052-18.188-1.783-9.72,1.014-14.6,10.2-17.673,3.481-1.16,7.046-2.067,10.573-3.074Z" transform="translate(-20.722 -52.364)"/><path d="M221.117,536.518l-3.942-8.6c-2.728.507-5.556.937-8.337,1.537-2.981.684-5.064.169-5.517-3.3a22.444,22.444,0,0,0-.584-2.251c-.515-2.221-1.537-3.5-4.165-3.074a49.24,49.24,0,0,1-6.992.469,15.238,15.238,0,0,1-2.882-.515l-.038-1.429c4.48-.6,8.952-1.322,13.455-1.66.768-.062,1.952,1.391,2.459,2.389a25.446,25.446,0,0,1,1.69,5.025c.423,1.637,1.337,2.105,2.92,1.706,2.359-.592,4.741-1.106,7.108-1.667,2.013-.476,3.573-.054,4.142,2.159.768,2.9,1.422,5.824,2.128,8.737Z" transform="translate(-43.662 -96.579)"/><path d="M56.136,390.39a6.416,6.416,0,0,1,5.755,5.217c.4,2.305.768,4.61,1.091,6.916.484,3.319-1.206,6.793-3.888,7.792-3.373,1.252-5.625-.392-7.138-3.2a35.411,35.411,0,0,1-3.25-7.231C47.484,395.469,51.71,390.3,56.136,390.39Zm4.5,11.157-.6-.438c-.231-1.406-.131-3.012-.768-4.165-.768-1.345-2.305-3.3-3.358-3.2-1.637.161-4.065,1.537-4.457,2.9a9.151,9.151,0,0,0,.861,6.47c1.068,1.875,3.381,3.074,5.148,4.534Q59.025,404.59,60.631,401.547Z" transform="translate(-11.199 -67.094)"/><path d="M46.29,278.72q1.153,4.38,2.305,8.767c.115.423.054.891.154,1.329,1.537,6.854,1.414,6.985-5.563,7.8-2.159.253-4.3.707-6.493,1.076.492,3.98,1.045,7.592,1.291,11.219.061.945-.653,2.62-1.36,2.835-4.434,1.368-8.96,2.428-13.47,3.55-.346.084-.768-.154-1.16-.238l-.254-.937L35.7,309.064c-.292-3.074-.561-6.255-.914-9.436-.223-2.044.192-3.419,2.582-3.842,3.258-.546,6.47-1.375,9.874-2.121-.307-5-2.759-9.743-2.228-14.753Z" transform="translate(-5.004 -41.231)"/><path d="M340.075,103.064C334.7,88.419,349.3,64.644,363,65.759,347.083,73.42,341.2,86.774,340.075,103.064Z" transform="translate(-78.466 8.1)"/><path d="M320.067,449.687c-.592,8.291-1.122,16.582-1.829,24.865a8.513,8.513,0,0,1-1.537,4.357c-4.672,5.894-9.536,11.626-14.331,17.42l-.961-.6a24.974,24.974,0,0,1,1.944-3.742c2.8-3.75,5.632-7.492,8.637-11.08,3.074-3.711,4.065-8.022,4.388-12.679s.768-9.3,1.429-13.916c.231-1.652,1.222-3.2,1.859-4.8Z" transform="translate(-69.776 -80.787)"/><path d="M135.273,109.152c0,3.957-1.445,6.063-4.134,7.246s-4.81.207-6.616-1.744c-2.451-2.643-4.826-5.379-3.419-9.413a5.894,5.894,0,0,1,8.675-3.3C132.914,103.727,135.227,106.17,135.273,109.152Zm-9.989-5.217c-.523.845-1.737,2.029-1.967,3.389-.369,2.205,3.5,6.516,5.294,5.878a5.709,5.709,0,0,0,3.143-3.558c.492-2.282-3.2-5.725-6.493-5.709Z" transform="translate(-27.919 -0.093)"/><path d="M201.29,460.326c3.243-.722,6.462-1.6,9.728-2.136,4.779-.768,8.283-3.481,11.61-6.77a125.517,125.517,0,0,1,10.058-8.775c1.375-1.091,3.243-1.537,4.887-2.305l.53.876c-1.137.914-2.359,1.737-3.4,2.751-3.074,3.074-6.378,5.963-9.144,9.3-4.08,4.925-9.4,6.916-15.453,7.515-2.881.292-5.778.446-8.675.661Z" transform="translate(-46.588 -78.663)"/><path d="M59.57,468.968c1.083-5.286,1.89-9.62,2.889-13.908.484-2.067,1.621-2.351,3.281-.815,3.012,2.789,6.147,5.456,9.221,8.153,1.99,1.737,1.36,3.258-.684,4.034a125.827,125.827,0,0,1-12.294,3.942C61.23,470.574,60.1,469.3,59.57,468.968Zm2.689-1.206,9.382-4.034-7.261-7.384C63.742,459.917,63.051,463.5,62.259,467.762Z" transform="translate(-13.765 -81.657)"/><path d="M179.423,67.1c-11.795-9.513-13.355-24.52-8.36-43.338C169.626,39.005,169.626,53.966,179.423,67.1Z" transform="translate(-38.967 -3.383)"/><path d="M552.047,278.68c4.718,0,11.334,6.816,11.226,10.581-.1,3.419-4.149,6.316-7.2,4.687a20.331,20.331,0,0,1-7.069-5.84c-1.037-1.537-.669-4.457-.046-6.485C549.372,280.248,551.317,279.325,552.047,278.68Zm-.638,5.894c-.361,4.8,3.073,5.21,5.256,6.57a4.07,4.07,0,0,0,3.842-.584c.622-.576.461-2.682-.108-3.681a12.472,12.472,0,0,0-3.627-3.842c-1.03-.768-2.782-1.452-3.719-1.037S551.616,284.212,551.409,284.574Z" transform="translate(-114.247 -41.222)"/><path d="M458.8,303.66c2.843,10.5-6.916,36.484-16.067,42.592C452.289,333.62,455.5,318.652,458.8,303.66Z" transform="translate(-102.505 -47.007)"/><path d="M107.6,237.194c-4.188-13.447-7.868-26.894-.108-40.264-.461,6.539-1.306,13.178-1.283,19.817C106.248,223.563,107.124,230.378,107.6,237.194Z" transform="translate(-23.814 -22.288)"/><path d="M479.78,86.13c7.684.33,11.564,5.056,13.885,11.441,2.628,7.2,2.659,14.192-2.6,20.539,2.305-5.994,3.181-12.01,1.214-18.28C490.223,93.3,483.714,90.932,479.78,86.13Z" transform="translate(-111.086 3.373)"/><path d="M487.6,186.853c-6.67-10.22-13.132-20.109-19.656-30.113C474.8,159.844,488.41,180.361,487.6,186.853Z" transform="translate(-108.344 -12.98)"/><path d="M475.636,63.618,475.7,48.75h1.13c.361,3.243.768,6.478,1.076,9.713.092.891,0,1.79.092,2.674.461,5.725-.361,6.431-5.463,4.18-4.664-2.052-9.221-4.365-13.831-6.593A2.436,2.436,0,0,1,457.31,56.8Z" transform="translate(-105.882 12.03)"/><path d="M453.42,155.32c12.9,7.891,17.35,21.131,23.9,32.849C469.48,177.4,461.642,166.6,453.42,155.32Z" transform="translate(-104.981 -12.652)"/><path d="M402.256,0c-.146,1.537,0,2.052-.253,2.305-3.9,4.3-3.573,9.221-2.474,14.415A74.761,74.761,0,0,1,400.6,27.947a5.171,5.171,0,0,1-1.445,3.373,15.658,15.658,0,0,1-.446-1.637c-.661-3.8-1.13-7.63-1.982-11.372-1.153-5.033-1.46-9.928,1.5-14.438C399.052,2.59,400.45,1.7,402.256,0Z" transform="translate(-91.661)"/><path d="M19.72,147.779c4.257-.768,10.865,2.882,12.648,6.57,2.428,5.018,2.105,9.574-1.068,12.348.154-1.737.63-3.35.361-4.826-.546-3-1.744-5.632-4.61-7.392a54.13,54.13,0,0,1-6.224-5.079A8.9,8.9,0,0,1,19.72,147.779Z" transform="translate(-4.536 -10.881)"/><path d="M457.83,342.8l9.889-26.579C470.655,322.2,464.477,338.565,457.83,342.8Z" transform="translate(-106.003 -49.916)"/><path d="M291.119,97.908h7.446c-1.76-3.781-3.4-7.031-4.749-10.4-.346-.868.246-2.113.407-3.181.814.615,1.929,1.06,2.382,1.883,1.844,3.289,3.535,6.67,5.171,10.074,1.26,2.6.384,4.18-2.52,4.1a80.488,80.488,0,0,1-8.406-1.045Z" transform="translate(-67.33 3.79)"/><path d="M96.745,233.325c-6.685-7.031-7.392-19.832-1.222-27.255C95.154,215.767,91.689,224.781,96.745,233.325Z" transform="translate(-21.111 -24.405)"/><path d="M526,269.254c-6.355,3.273-11.411-3.074-11.342-13.654C518.294,260.2,519.2,266.972,526,269.254Z" transform="translate(-119.164 -35.877)"/><path d="M402.33,547.931c.607-1.775,2.766-2.251,4.38-1.537,4.864,2.052,9.528,4.61,14.269,6.916l-.645,1.537c-3.327-1.16-6.685-2.251-9.989-3.489C407.77,550.32,405.265,549.168,402.33,547.931Z" transform="translate(-93.149 -103.151)"/><path d="M321.79,31.408c.768-6.293-2.182-10.289-4.987-14.384-.43-.63-.23-1.7-.323-2.566a5.524,5.524,0,0,1,2.082.169c3.781,1.982,6.654,11,4.787,14.861a15.472,15.472,0,0,1-1.56,1.921Z" transform="translate(-73.266 19.975)"/><path d="M479.06,155.1c5.648,1.4,13.478,11.434,11.995,16.244Z" transform="translate(-110.92 -12.601)"/><path d="M250.848,550.66c1.283,5.924,2.5,11.357,3.6,16.813a1.975,1.975,0,0,1-.976,1.667,2.113,2.113,0,0,1-1.8-.93A24.635,24.635,0,0,1,250.848,550.66Z" transform="translate(-57.78 -104.213)"/><path d="M83.049,230.657c-4.149-6.186-4-10.619.884-15.967C83.625,220.215,83.34,225.432,83.049,230.657Z" transform="translate(-18.518 -26.402)"/><path d="M466.19,342.9c2.5-5.678,4.841-10.988,7.261-16.482C475.1,331.722,471.7,339.59,466.19,342.9Z" transform="translate(-107.939 -52.279)"/><path d="M552.86,273.441a6.316,6.316,0,0,1,6.447-1.537,8.036,8.036,0,0,1,5.8,6.793Z" transform="translate(-115.291 -39.579)"/><path d="M490.524,367.39c-3.381-4.557-6.332-9.282-5.878-15.368l.991-.392q2.989,7.684,5.986,15.368Z" transform="translate(-112.203 -58.117)"/><path d="M56.675,460.585c0-3.073-.085-6.147.131-9.221,0-.622,1.253-1.168,1.921-1.744.507.768,1.537,1.621,1.414,2.305-.515,2.974-1.36,5.886-2.09,8.821Z" transform="translate(-13.091 -80.812)"/><path d="M368.266,566.109c-3.973,1.345-11.372-3.442-11.526-8.1Z" transform="translate(-82.59 -105.915)"/><path d="M69.149,392.188c-2-1.537-4.049-3.074-5.947-4.764a2.128,2.128,0,0,1,.069-1.906c.715-.284,1.967-.476,2.367-.069,1.7,1.714,3.158,3.658,4.7,5.517Z" transform="translate(-14.562 -65.896)"/><path d="M476,482.94c2.136-2.566,4.28-5.125,6.708-8.03,1.383,3.419-.584,5.824-6,8.667Z" transform="translate(-101.73 -84.549)"/><path class="b" d="M427.9,413.44c3.465,2.067,6.516,3.781,9.451,5.663,3.934,2.52,7.684,5.379,11.687,7.684,5.648,3.3,11.526,3.074,17.289.161,3.381-1.729,6.7-3.573,9.989-5.487,16.851-9.858,31.612-3.127,41.048,9.69a56.973,56.973,0,0,1,9.582,19.763c1.744,6.808,3.458,13.616,4.956,20.47.522,2.382,1.122,5.117-2.543,7.346a40.878,40.878,0,0,1-1.176-5.525c-.707-10.412-3.358-20.209-9.075-29.03-7.615-11.764-18.4-16.136-32.05-13.355-8.314,1.683-16.559,3.711-24.888,5.286-11.91,2.251-22.115-1.191-30.375-10.051C428.807,422.853,426.732,419.126,427.9,413.44Z" transform="translate(-90.514 -70.312)"/><path class="c" d="M337.214,466.819c-1.076,7.745-1.46,14.73-3.12,21.4a36.107,36.107,0,0,1-19.387,24.389c-3,1.537-6.524,3.135-9.436.538s-1.391-6.385.131-8.99c2.889-4.941,5.8-10.366,10.1-13.877,6.654-5.433,8.522-12.125,8.706-19.94.084-3.8-.085-7.607.146-11.4a12.044,12.044,0,0,1,1.46-5.709c1.03-1.56,2.951-2.989,4.533-3.074,1.368-.046,3.642,1.706,4.042,3.074C335.731,457.928,336.415,462.761,337.214,466.819Z" transform="translate(-70.287 -80.937)"/><path class="d" d="M60.64,58.127A20.331,20.331,0,0,1,48.784,76.138a9.628,9.628,0,0,1-6.608.4c-8.568-2.782-13.854-8.767-15.437-17.719-1.614-9.082,8.514-21.73,17.673-21.669,2.474,0,5.279,1.706,7.338,3.366C57.267,44.957,60.794,50.635,60.64,58.127Z" transform="translate(0.239 6.237)"/><path class="e" d="M559.111,153.766c.838,4.049,1.621,7.822,2.5,12.064-2.059.768-4.172,1.644-6.354,2.305-2.728.838-3.55,2.305-2.367,5.033,1.329,3.074,2.451,6.147,3.8,9.6L540.546,187.1c-.592-2.843-1.091-5.532-1.721-8.191-.768-3.358-1.675-3.742-4.964-2.735-2.521.768-5.094,1.352-7.822,2.059-1.368-4.972-2.651-9.651-4.019-14.646,2.928-.653,5.709-1.322,8.506-1.867s3.419-2,2.759-4.61c-.815-3.212-1.345-6.5-2.013-9.812,4.434-1.076,8.514-2.152,12.648-2.966a2.812,2.812,0,0,1,2.305,1.445,65.064,65.064,0,0,1,1.537,6.47c.553,2.305,1.829,3.419,4.38,2.782C554.277,154.5,556.521,154.227,559.111,153.766Z" transform="translate(-101.788 -10.106)"/><path class="f" d="M189.753,17.808c-.707,3.074-1.329,6.147-2.128,9.136-1.952,7.407-3.074,14.892,1.767,21.515a51.082,51.082,0,0,0,9.474,9.267c3.9,3.135,8.322,5.64,12.34,8.652,2.305,1.737,5.079,4.372,3.489,7.062-.768,1.268-5.379,1.206-7.761.392-12.871-4.4-22.8-12.11-26.517-25.926-2.782-10.32.6-19.571,5.463-28.431.538-.976,1.844-1.537,2.8-2.305Z" transform="translate(-41.521 -1.857)"/><path class="g" d="M67.6,353.966c1.375-20.447,11.795-34.355,28.339-44.19,4.226-2.505,7.684-1.875,8.8.868,1.091,2.59-.822,5.3-5.1,7.085-3.074,1.283-6.232,2.305-9.259,3.7-6.916,3.127-10.327,8.767-11.126,16.19-.607,5.64-1.091,11.318-2.182,16.866a15.281,15.281,0,0,1-3.673,6.562c-1.867,2.159-3.926,1.6-4.764-1.114a41.247,41.247,0,0,1-1.03-5.963Z" transform="translate(-15.625 -48.059)"/><path class="h" d="M463.251,122.625c-7.761.768-18-4.51-20.6-11.657-1.575-4.334-1.206-7.108,2.182-10.281C450.9,95,457.565,91.175,466.24,94.54c8.068,3.15,12.863,12.909,10.489,21.239-1.045,3.681-5.21,6.485-10.189,6.823C465.31,122.7,464.081,122.625,463.251,122.625Z" transform="translate(-102.28 1.717)"/><path class="i" d="M190,566.857c-.377-2.728-.684-5.025-1-7.323-.338-2.49-1.222-3.642-4-2.305a57.216,57.216,0,0,1-7.354,2.474l-3.8-16.282,6.854-.838c2.213-.269,2.712-1.714,2.351-3.612-.407-2.167-.914-4.318-1.452-6.793l14.192-2.49c.507,2.305,1.091,4.549,1.46,6.823.33,1.99,1.306,2.613,3.258,2.221,3.027-.607,6.078-1.068,9.221-1.606,1.375,4.91,2.72,9.7,4.111,14.6-3.5.73-6.962,1.483-10.435,2.159-1.86.361-2.182,1.153-1.7,3.074,2.006,7.73,1.913,7.753-6.055,9.006C193.946,566.289,192.186,566.535,190,566.857Z" transform="translate(-40.235 -99.356)"/><path class="j" d="M352.24,103.338c2.09-13.455,7.63-24.765,19.932-31.5,3.22-1.767,7.377-2.128,11.165-2.49,2.9-.277,4.157,2.451,2.305,4.779a19.779,19.779,0,0,1-4.687,4.172,68.979,68.979,0,0,1-6.8,3.581c-7.861,3.973-12.848,10.158-14.6,18.856-.507,2.49-.953,5.01-1.66,7.446-.269.937-1.1,2.244-1.844,2.367a3.135,3.135,0,0,1-2.5-1.621A31.709,31.709,0,0,1,352.24,103.338Z" transform="translate(-81.548 7.265)"/><path class="k" d="M524.021,336.94c0,9.943-6.547,17.258-15.368,17.227-8.406,0-17.066-8.7-17.043-17.066,0-7.684,7.976-15.99,15.26-15.921C516.13,321.264,524.052,328.549,524.021,336.94Z" transform="translate(-113.826 -51.065)"/><path class="l" d="M352.77,517.79c2.152-3.934,4.034-8.045,6.554-11.718,1.537-2.213,4.534-1.337,4.995,1.352a14.428,14.428,0,0,1-.292,6.562c-2.928,9.221,0,16.6,6.47,23.052,2.759,2.774,5.809,5.279,8.283,8.276,1.36,1.652,1.8,4.073,2.651,6.147-2.305-.23-4.872.154-6.808-.768-11.687-5.778-18.8-15-20.347-28.177-.169-1.421-.476-2.835-.715-4.249Z" transform="translate(-81.671 -93.596)"/><path class="m" d="M37.817,286.919c-2.989.515-5.8,1.122-8.644,1.452-2.128.246-2.928,1.222-2.674,3.3.231,1.883.3,3.78.538,5.655s0,2.958-2.228,3.2c-2.951.315-5.863,1.007-9.1,1.591,0-3.074.069-5.84,0-8.621-.038-2.628-1.414-3.6-3.965-2.966l-7.315,1.79.054-13.286a41.078,41.078,0,0,1,5.379-.63c2.6,0,3.143-1.36,2.6-3.442C11.845,272.6,11,270.3,10.155,267.6l11.388-3.842a73.991,73.991,0,0,1,1.491,7.607c.246,2.559,1.729,2.536,3.5,2.151,2.7-.592,5.379-1.283,8.56-2.059C36.011,276.646,36.895,281.664,37.817,286.919Z" transform="translate(-0.995 -37.766)"/><path class="n" d="M504.34,38.6l26.7-2.305c-3.189,9-6.262,17.673-9.513,26.825Z" transform="translate(-101.934 29.757)"/><path class="o" d="M422.363,506.6c-6.355-4.879-12.917-10.081-19.663-15.03-2.182-1.6-2.305-3.166-.914-5.01,3.926-5.141,7.876-10.266,11.995-15.253,2.39-2.889,5.125-5.5,7.684-8.245l1.053.161Z" transform="translate(-92.812 -83.925)"/><path class="p" d="M82.318,135.31c8.952.085,17.074,5.471,23.129,14.369,1.068,1.537,2.728,3.919.546,5.286-1.337.845-4.08.423-5.725-.376-5.771-2.812-11.288-6.147-17-9.067-4.572-2.359-9.075-1.859-13.255,1.114-2.359,1.675-4.518,3.681-7.008,5.141A21.678,21.678,0,0,1,56.3,154.4c-1.69.33-3.028-.53-1.913-2.858C58.16,143.662,71.414,135.248,82.318,135.31Z" transform="translate(-12.47 -8.017)"/><path class="q" d="M488.734,227.711c4.887-2.858,9.951-4.818,15.714-2.467a53.788,53.788,0,0,1,21.738,15.706c1.606,1.975,2.305,4.964,2.666,7.592.384,2.881-1.959,4.318-4.441,5.071a4.571,4.571,0,0,1-5.686-2.367c-2.052-3.581-3.988-7.231-5.924-10.881-3.366-6.355-8.821-9.029-15.8-9.482-2.835-.192-5.617-1.168-8.452-1.783Z" transform="translate(-113.118 -28.604)"/><path class="r" d="M419.7,29.444a15.278,15.278,0,0,1-3.7,9.989,6.989,6.989,0,0,1-2.444,2.228A40.339,40.339,0,0,1,408,42.906c.33-1.621.338-3.389,1.045-4.818a20.286,20.286,0,0,0,1.537-12.41c-.476-3.2-1.1-6.378-1.5-9.582a12.846,12.846,0,0,1,0-4.995c.453-1.583,1.713-2.928,2.62-4.372,1.206.96,2.812,1.69,3.527,2.928C418.427,15.159,419.572,21.237,419.7,29.444Z" transform="translate(-94.462 -1.559)"/><path class="s" d="M201.271,111.014c0,1.452.261,2.559-.069,3.442a35.97,35.97,0,0,1-2.305,4.38c-1.406-.945-3.074-1.675-4.134-2.9a9.683,9.683,0,0,1-1.537-3.973,19.283,19.283,0,0,0-10.642-12.648,28.837,28.837,0,0,1-5.5-3.719,3.2,3.2,0,0,1-.822-2.636c.1-.476,1.437-.93,2.259-1.007C188.977,90.967,200.833,101.148,201.271,111.014Z" transform="translate(-40.783 -4.32)"/><path class="t" d="M116.119,517.553c-3.8.061-6.516-4.08-4.334-7.162a17.544,17.544,0,0,1,6.393-5.548c3.988-1.89,8.391-2.9,12.571-4.4,2.305-.822,2.62.4,2.305,2.105C132.294,507.234,120.645,517.476,116.119,517.553Z" transform="translate(-25.678 -92.521)"/><path class="u" d="M452.19,42.632l14.392-7.492c.907,5.748,1.775,11.242,2.666,16.9Z" transform="translate(-104.697 15.182)"/><path class="v" d="M264.033,561.866c-3.412,0-4.034-2.175-3.742-4.3a42.867,42.867,0,0,1,2.305-9.351c1.729-4.549,7.323-7.054,11.18-5.379,3.158,1.368,3.289,2.828,1.137,5.455a44.916,44.916,0,0,0-5,7.73C268.444,558.769,266.83,561.113,264.033,561.866Z" transform="translate(-60.238 -102.279)"/><path class="w" d="M415.367,574.128c-6.8,0-12.947-5.832-12.64-11.687.069-1.314.876-2.589,1.352-3.88a32.912,32.912,0,0,1,3.542,1.537c3.535,1.975,7.108,3.911,10.489,6.147,1.537,1,2.674,2.613,4,3.942a42.253,42.253,0,0,1-4.334,3.658A5.88,5.88,0,0,1,415.367,574.128Z" transform="translate(-93.238 -106.043)"/><path class="x" d="M279.07,74.84,283.95,87.9l-14.6-.768Z" transform="translate(-62.35 5.988)"/><path class="y" d="M72.926,527.892,56.09,526.178l14.838-8.6C71.573,520.923,72.226,524.311,72.926,527.892Z" transform="translate(-12.959 -96.552)"/><path class="z" d="M13,169.562c-3.688,0-7.384-3.911-7.254-7.684.108-3.173,3.4-4.61,7.592-4.9,4-.254,7.584,2.6,7.684,5.448C21.117,165.62,16.7,169.554,13,169.562Z" transform="translate(-1.299 -13.031)"/><path class="aa" d="M304.453,19c2.152,0,5.118,3.973,5.279,7.108.123,2.405-2.382,4.726-5.1,4.718-4.71,0-8.122-3.02-8.26-7.015C296.277,21.305,299.043,19.53,304.453,19Z" transform="translate(-68.608 18.92)"/><path class="ab" d="M493.944,491.158c-.692,2.19-.845,3.6-1.537,4.68-1.452,2.305-3.619,3.973-6.432,3.035-2.628-.884-2.866-3.427-2.636-5.863.092-.983.138-2.267.768-2.835a71.347,71.347,0,0,1,5.755-4.464Z" transform="translate(-103.415 -87.05)"/><path class="ac" d="M536.73,392.235c-2.305-1.3-4.887-2.305-6.862-4.019-.968-.838-1.621-3.35-1.06-4.357.9-1.621,2.958-3.719,4.449-3.65a17.437,17.437,0,0,1,8.176,2.735c1.307.815,2.451,3.55,2.052,4.956s-2.759,2.413-4.357,3.435c-.484.307-1.306.108-1.967.146Z" transform="translate(-107.553 -62.616)"/><path class="ad" d="M61.441,402.556q-1.606,3.074-3.2,6.093c-1.767-1.483-4.08-2.659-5.148-4.534a9.152,9.152,0,0,1-.861-6.47c.392-1.352,2.82-2.735,4.457-2.9,1.037-.1,2.582,1.859,3.358,3.2.661,1.153.561,2.759.768,4.165Z" transform="translate(-12.009 -68.103)"/><path class="ae" d="M126.04,104.79c3.289,0,6.985,3.427,6.47,5.709a5.709,5.709,0,0,1-3.143,3.558c-1.79.638-5.663-3.673-5.294-5.878C124.3,106.819,125.548,105.635,126.04,104.79Z" transform="translate(-28.698 -0.949)"/><path class="af" d="M63.07,468.688c.768-4.265,1.452-7.845,2.121-11.418l7.261,7.384Z" transform="translate(-14.576 -82.584)"/><path class="ag" d="M552.322,285.539c.207-.361.646-2.121,1.652-2.559s2.689.3,3.719,1.037a12.471,12.471,0,0,1,3.627,3.842c.569,1,.768,3.074.108,3.681a4.07,4.07,0,0,1-3.842.584C555.419,290.749,551.961,290.342,552.322,285.539Z" transform="translate(-115.161 -42.188)"/><path class="ah" d="M160.38,277.919c19.341,11.464,39.227,13.754,59.851,5.732,15.491-6.024,26.894-16.774,34.424-31.6,15.038-29.8,5.379-70.009-29.483-88.051,14.354-9.036,61.81-8.96,80.021.277-19.264,10.25-31.727,25.626-35.838,47.1-3.028,15.829-.131,30.736,7.592,44.905,13.209,24.251,52.758,46.05,91.993,22.7-.6,2.974-1.068,5.571-1.644,8.145-3.919,17.527-11.764,33.187-22.721,47.341-13.217,17.066-31.089,26.756-51.69,31.374-33.226,7.438-64.676,3.273-93.068-16.628-10.589-7.423-18.05-17.742-24.589-28.792a118.534,118.534,0,0,1-14.407-39.188C160.68,280.3,160.58,279.356,160.38,277.919Zm104.287,18.757c-13.677-.054-27.355-.131-41.04-.146-4.825,0-7.131,2.359-7.192,7.123a48.771,48.771,0,0,0,4.149,20.078c8.114,18.8,34.647,30.19,55.163,24.935,22.683-5.817,36.245-21.423,36.883-43.8.154-5.694-1.99-8.03-7.546-8.068Q284.857,296.741,264.667,296.675Z" transform="translate(-37.113 -13.106)"/><path class="ai" d="M367.87,283.6c-31.673-.338-57.545-26.625-57.023-58.168a57.432,57.432,0,0,1,58.076-57.054c31.988.069,57.561,26.464,57.207,58.291A57.784,57.784,0,0,1,367.87,283.6Zm4.026-97.341c-17.6,0-34.386,11.526-41.155,28.784-1.744,4.434-2.5,9.3-3.381,14.023a3.409,3.409,0,0,0,3.2,4.111c2.3.315,3.619-1.007,4.226-3.112a16.3,16.3,0,0,0,.423-2.213,40.372,40.372,0,0,1,10.335-21.83c14.484-15.875,37.813-15.975,50.714-.115,5.379,6.608,7.53,14.384,7.446,22.86,0,2.474.853,4.518,3.734,4.749,2.39.192,3.9-1.644,4.065-4.764C412.806,205.862,394.542,186.284,371.9,186.261Z" transform="translate(-71.96 -15.676)"/><path class="ai" d="M131.81,225.31a57.707,57.707,0,1,1,17.013,40.809A57.61,57.61,0,0,1,131.81,225.31Zm54.556-39.78a39.7,39.7,0,0,0-39.434,34.424,50.421,50.421,0,0,0-.453,8.675c.085,2.221,1.345,3.957,3.888,3.88s3.573-1.706,3.75-4.026c.077-1.076,0-2.152.085-3.227.853-18.557,15.26-32.472,33.041-31.9,14.484.461,28.123,10.819,33.325,25.565,1.176,3.32,1.637,6.916,2.474,10.327.768,3.035,3.12,4.449,5.433,3.2,2.182-1.168,2.205-3.227,2.067-5.34-1.452-21.976-22.076-41.409-44.16-41.586Z" transform="translate(-30.496 -15.514)"/><path d="M329.5,346.892c-.53,19.341-10.758,33.625-28.231,40.886a63.458,63.458,0,0,1-8.629,2.866c-9.62,2.459-20.509,1.268-30.237-2.574-11.073-4.418-20.608-12.294-24.927-22.337a48.74,48.74,0,0,1-4.149-20.071c.061-4.772,2.367-7.131,7.192-7.123,13.685,0,27.363.092,41.04.138,13.462.054,26.894.085,40.395.169C327.512,338.893,329.656,341.2,329.5,346.892Z" transform="translate(-54.008 -55.086)"/><path d="M376.86,191.65c22.645,0,40.909,19.6,39.634,42.492-.169,3.12-1.675,4.956-4.065,4.764-2.882-.231-3.765-2.305-3.734-4.749.084-8.452-2.067-16.252-7.446-22.86-12.917-15.86-36.245-15.76-50.714.115a40.372,40.372,0,0,0-10.35,21.83,16.285,16.285,0,0,1-.423,2.213c-.607,2.105-1.913,3.435-4.226,3.112a3.4,3.4,0,0,1-3.2-4.111c.884-4.726,1.637-9.59,3.381-14.023C342.475,203.176,359.256,191.627,376.86,191.65Z" transform="translate(-76.923 -21.066)"/><path d="M190.788,190.91c22.084.177,42.708,19.609,44.137,41.586.138,2.113.115,4.172-2.067,5.34-2.305,1.245-4.695-.169-5.433-3.2-.838-3.442-1.3-7.008-2.474-10.327-5.2-14.746-18.841-25.1-33.325-25.565-17.758-.576-32.165,13.339-33.041,31.9-.054,1.076,0,2.151-.085,3.227-.177,2.305-1.253,3.95-3.75,4.026s-3.842-1.66-3.888-3.88a50.417,50.417,0,0,1,.469-8.675,39.7,39.7,0,0,1,39.457-34.424Z" transform="translate(-34.902 -20.894)"/><path class="aj" d="M385.624,322.45s-1.8,51.014-70.224,81.2l8.614,3.335s23.951-7.684,29.768-8.283,33.095-30.9,33.095-30.9l17.6-36.783,5.256-20.67Z" transform="translate(-73.016 -48.554)"/><path class="ak" d="M181.44,336.27s16.613,49.177,55.363,60.342a61.606,61.606,0,0,1-40.656-18.91C181.87,362.81,181.44,336.27,181.44,336.27Z" transform="translate(-41.99 -54.56)"/><path class="al" d="M238.867,178.35S289.3,247.721,204.22,287.462l25.357-1.844,17.158-11.572,17.827-19.325,4.526-23.9-3.7-25.849-6.3-9.72L248.995,182.96Z" transform="translate(-47.266 -17.985)"/><path class="al" d="M417.916,179.05S469.4,248.429,382.57,288.163l25.864-1.837,17.5-11.557L444.1,255.444l4.61-23.9-3.773-25.88-6.4-9.743-10.3-12.294Z" transform="translate(-88.572 -18.147)"/><path class="aj" d="M243.574,164.008s43.361-10.174,73,6.147l8.452-3.842,4.549-6.447-14.861-2.643L292.121,150l-38.827,4.995L241,159.474Z" transform="translate(-55.785 -11.419)"/><path class="am" d="M317.994,237.377s-12.886-9.751,14.4-45.2C332.393,192.165,318.2,216.185,317.994,237.377Z" transform="translate(-72.912 -21.188)"/><path class="am" d="M138.994,237.377s-12.886-9.751,14.4-45.2C153.393,192.165,139.2,216.185,138.994,237.377Z" transform="translate(-31.456 -21.188)"/><path d="M390.032,223.674c-.353,15.368-6.578,30.49-18.726,43.245a10.334,10.334,0,0,0-2.659,5.2c-2.728,17.489-7.8,34.063-16.636,49.585-13.762,24.158-33.587,40.418-60.388,47.756-35.177,9.628-68.864,6.393-100.4-12.84-13.831-8.452-23.444-20.708-31.589-34.386-9.136-15.322-14.346-31.942-16.644-49.531a13.37,13.37,0,0,0-3.665-7.569c-17.112-19.21-22.353-41.363-14.085-65.729,8.23-24.235,25.772-38.589,50.9-43.476a62.961,62.961,0,0,1,25.357.615,9.221,9.221,0,0,0,4.964-.423q49.592-18.841,99.031.315a9.9,9.9,0,0,0,5.271.515C352.15,148.486,390.239,179.4,390.032,223.674Zm-238.68,51.813c.2,1.437.3,2.382.469,3.312a118.533,118.533,0,0,0,14.407,39.188c6.508,11.05,13.969,21.369,24.589,28.792,28.431,19.9,59.843,24.066,93.068,16.628,20.6-4.61,38.474-14.308,51.69-31.374,10.957-14.154,18.8-29.814,22.722-47.341.576-2.574,1.045-5.171,1.644-8.145-39.234,23.352-78.784,1.537-91.993-22.7-7.722-14.177-10.619-29.076-7.592-44.905,4.111-21.469,16.574-36.845,35.838-47.1-18.211-9.221-65.667-9.313-80.021-.277,34.87,18.042,44.521,58.252,29.483,88.051-7.492,14.83-18.933,25.58-34.424,31.6C190.578,289.241,170.692,286.952,151.352,275.487ZM324,278.6a57.784,57.784,0,0,0,58.26-56.931c.353-31.827-25.357-58.214-57.207-58.291a57.494,57.494,0,0,0-58.076,57.054C266.45,251.974,292.322,278.261,324,278.6ZM129.4,220.47a57.71,57.71,0,1,0,57.53-57.6A57.707,57.707,0,0,0,129.4,220.47Z" transform="translate(-28.084 -10.674)"/><path class="an" d="M182.638,438.223q-20.194-.069-40.395-.161c-5.556-.038-7.684-2.374-7.546-8.068.615-22.337,14.177-37.936,36.883-43.76,20.516-5.256,47.049,6.147,55.163,24.935a48.77,48.77,0,0,1,4.149,20.078c-.061,4.764-2.367,7.123-7.192,7.123C209.993,438.361,196.316,438.277,182.638,438.223Z" transform="translate(-31.163 -65.834)"/><path d="M223.591,438.6h0c-9.6,0-19.348-.054-28.784-.092l-12.256-.054-10.7-.038q-14.845-.046-29.7-.123c-2.889,0-4.818-.638-6.086-1.944s-1.867-3.4-1.783-6.455c.607-22.114,14.131-38.174,37.106-44.06,21.054-5.379,47.525,6.57,55.54,25.119a48.685,48.685,0,0,1,4.172,20.209C231.037,436.16,228.578,438.6,223.591,438.6Zm-41.048-.768,12.294.054c9.428.038,19.21.084,28.777.092h0c4.61,0,6.8-2.167,6.862-6.8a47.963,47.963,0,0,0-4.126-19.978c-7.891-18.28-34-30.083-54.779-24.75-22.675,5.817-36.023,21.654-36.614,43.453-.085,2.874.423,4.779,1.6,5.986s2.92,1.737,5.617,1.752q14.853.085,29.706.123Z" transform="translate(-31.068 -65.738)"/><path class="ao" d="M198.978,458.144q7.377,0,14.761.061c2.036,0,2.82.868,2.759,2.943-.223,8.168-5.179,13.87-13.47,16-7.5,1.921-17.2-2.244-20.17-9.113a17.787,17.787,0,0,1-1.537-7.338,2.307,2.307,0,0,1,2.628-2.6Q191.478,458.105,198.978,458.144Z" transform="translate(-41.962 -82.774)"/><path d="M198.818,478.528c-7.238,0-14.907-4.28-17.527-10.358a19.211,19.211,0,0,1-1.621-7.868c0-2.466,1.452-3.842,3.919-3.842H194l8.76.038,10.6.038a4.134,4.134,0,0,1,3.074,1.068,4.249,4.249,0,0,1,.976,3.212c-.238,8.645-5.5,14.922-14.446,17.212A16.526,16.526,0,0,1,198.818,478.528ZM183.589,459c-1.045,0-1.322.277-1.337,1.329a16.452,16.452,0,0,0,1.414,6.808c2.674,6.2,11.572,10.2,18.657,8.375,7.853-2.013,12.294-7.261,12.5-14.776a2.167,2.167,0,0,0-.254-1.345,1.9,1.9,0,0,0-1.222-.277l-10.6-.046h-8.76l-10.4-.038Z" transform="translate(-41.58 -82.396)"/><path class="am" d="M142.62,431.81a10.225,10.225,0,0,1,.077-1.076l.108-.976c.077-.645.169-1.276.277-1.9.2-1.26.461-2.49.768-3.711a53.472,53.472,0,0,1,2.305-7.161,45.06,45.06,0,0,1,7.63-12.763,38.421,38.421,0,0,1,11.411-9.013A45.213,45.213,0,0,1,178.827,391a44.007,44.007,0,0,0-12.609,5.87,38.415,38.415,0,0,0-5.2,4.426,37.649,37.649,0,0,0-4.2,5.263,40.516,40.516,0,0,0-5.187,12.217,48.411,48.411,0,0,0-1.114,6.524c-.108,1.091-.177,2.182-.2,3.273v2.382a2.947,2.947,0,0,0,.046.684Z" transform="translate(-33 -67.235)"/><ellipse class="ap" cx="5.817" cy="5.333" rx="5.817" ry="5.333" transform="translate(146.473 308.258)"/><path d="M196.3,381.7a5.664,5.664,0,1,1,6.147-5.64A5.926,5.926,0,0,1,196.3,381.7Zm0-10.665a5.047,5.047,0,1,0,5.509,5.025A5.266,5.266,0,0,0,196.3,371.032Z" transform="translate(-44.008 -62.467)"/><path class="aq" d="M199.5,372.08a5.1,5.1,0,0,1,2.39,1.621,3.957,3.957,0,0,1,.984,2.989,3.743,3.743,0,0,1-.569,1.537,4.842,4.842,0,0,1-1.068,1.13,5.942,5.942,0,0,1-2.666,1.107c.653-.715,1.314-1.322,1.821-1.983a4.019,4.019,0,0,0,.945-1.99,3.926,3.926,0,0,0-.461-2.151,18.176,18.176,0,0,0-1.375-2.259Z" transform="translate(-45.958 -62.854)"/><path class="am" d="M192.377,376.72a3.227,3.227,0,0,1,0-1.667,3.189,3.189,0,0,1,.9-1.537,2.782,2.782,0,0,1,1.621-.7,3.154,3.154,0,0,1,.853.039,3.844,3.844,0,0,1,.768.261c-.277.069-.538.092-.768.146a4.036,4.036,0,0,0-.722.2,3.165,3.165,0,0,0-1.191.684,6.208,6.208,0,0,0-1.46,2.574Z" transform="translate(-44.498 -63.021)"/><path class="ar" d="M217.46,388.37s24.658,31.343,9.275,50.791h16.136a6.37,6.37,0,0,0,6.916-4.764c1.66-5.533-1.537-18.442-3.512-21.692S240.443,396.538,217.46,388.37Z" transform="translate(-50.333 -66.626)"/><rect width="133.179" height="3.235" rx="1.617" transform="translate(82.473 372.258)"/><path d="M223.29,439.27h0c-9.6,0-19.356-.046-28.784-.092l-12.294-.046-10.688-.038q-14.853-.054-29.706-.131c-3.166,0-5.317-.73-6.777-2.236s-2.144-3.842-2.052-7.154c.622-22.583,14.407-38.973,37.828-44.982,21.515-5.5,48.494,6.731,56.677,25.68a49.524,49.524,0,0,1,4.249,20.6C231.7,436.365,228.768,439.27,223.29,439.27Zm-41.048-2.728,12.294.054c9.436.038,19.21.085,28.777.092h0c4.08,0,5.84-1.752,5.886-5.847a46.917,46.917,0,0,0-4.034-19.548c-7.684-17.881-33.295-29.414-53.657-24.2-11.088,2.843-19.855,7.984-26.041,15.268s-9.551,16.521-9.843,27.278c-.069,2.559.361,4.288,1.322,5.287s2.543,1.437,4.933,1.452q14.845.085,29.7.123Z" transform="translate(-30.767 -65.444)"/><path class="as" d="M310.036,398a63.48,63.48,0,0,1-8.629,2.866c-9.62,2.459-20.509,1.268-30.236-2.574a19.9,19.9,0,0,1,15.368-15.46,10.584,10.584,0,0,1,1.26,1.975,10.414,10.414,0,0,1,.914,2.651l1.245,6.916a.238.238,0,0,0,.461,0l1.245-6.916a10.481,10.481,0,0,1,2.267-4.795,19.863,19.863,0,0,1,16.136,15.368Z" transform="translate(-62.772 -65.304)"/><path d="M239.989,336.16s-7.261.907-9.989,9.989Z" transform="translate(-53.237 -54.534)"/><path d="M349,336.16s7.261.907,9.989,9.989Z" transform="translate(-80.798 -54.534)"/></g></g></svg>