<svg xmlns="http://www.w3.org/2000/svg" xmlns:xlink="http://www.w3.org/1999/xlink" width="457.12" height="460.506" viewBox="0 0 457.12 460.506"><defs><style>.a{fill:url(#a);}.b{fill:url(#b);}.c{fill:url(#c);}.d{fill:url(#d);}.e{fill:url(#e);}.f{fill:url(#f);}.g{fill:url(#g);}.h{fill:url(#h);}.i{fill:url(#i);}.j{fill:url(#j);}.k{fill:url(#k);}.l{fill:url(#l);}.m{fill:url(#m);}.n{fill:url(#n);}.o{fill:url(#o);}.p{fill:url(#p);}.q{fill:url(#q);}.r{fill:url(#r);}.s{fill:url(#s);}.t{fill:url(#t);}.u{fill:url(#u);}.v{fill:url(#v);}.w{fill:url(#w);}.x{fill:url(#x);}.y{fill:url(#y);}.z{fill:url(#z);}.aa{fill:url(#aa);}.ab{fill:url(#ab);}.ac{fill:url(#ac);}.ad{fill:url(#ad);}.ae{fill:url(#ae);}.af{fill:url(#af);}.ag{fill:url(#ag);}.ah{fill:url(#ah);}.ai{fill:#ffc380;}.aj{fill:#ff556b;}.ak{fill:#e29764;}.al{fill:#eaeaea;}.am{fill:#ededed;}.an{fill:#d3d3d3;}.ao{fill:#fff;}</style><linearGradient id="a" x1="0.003" y1="0.596" x2="1.005" y2="0.596" gradientUnits="objectBoundingBox"><stop offset="0" stop-color="#6ac9c8"/><stop offset="0.14" stop-color="#6cc9c4"/><stop offset="0.28" stop-color="#72cab8"/><stop offset="0.42" stop-color="#7bcca3"/><stop offset="0.57" stop-color="#88cf86"/><stop offset="0.71" stop-color="#99d261"/><stop offset="0.86" stop-color="#aed634"/><stop offset="1" stop-color="#c6da00"/><stop offset="1" stop-color="#d7df23"/></linearGradient><linearGradient id="b" x1="0.007" y1="0.665" x2="1.006" y2="0.665" xlink:href="#a"/><linearGradient id="c" x1="0.018" y1="0.606" x2="1.013" y2="0.606" xlink:href="#a"/><linearGradient id="d" x1="-0.023" y1="0.691" x2="0.977" y2="0.691" gradientUnits="objectBoundingBox"><stop offset="0" stop-color="#ff77ad"/><stop offset="1" stop-color="#9a559f"/></linearGradient><linearGradient id="e" x1="-0.011" y1="0.643" x2="0.989" y2="0.643" gradientUnits="objectBoundingBox"><stop offset="0" stop-color="#ed1846"/><stop offset="0.1" stop-color="#ed204c"/><stop offset="0.24" stop-color="#ee365b"/><stop offset="0.43" stop-color="#ef5a75"/><stop offset="0.64" stop-color="#f08c99"/><stop offset="0.87" stop-color="#f1cbc6"/><stop offset="1" stop-color="#f2f2e2"/></linearGradient><linearGradient id="f" x1="-0.023" y1="0.625" x2="0.98" y2="0.625" xlink:href="#a"/><linearGradient id="g" x1="0.004" y1="0.638" x2="0.999" y2="0.638" xlink:href="#a"/><linearGradient id="h" x1="-0.018" y1="0.716" x2="0.983" y2="0.716" xlink:href="#d"/><linearGradient id="i" x1="0.017" y1="0.693" x2="1.018" y2="0.693" xlink:href="#e"/><linearGradient id="j" x1="-0.018" y1="0.66" x2="0.978" y2="0.66" xlink:href="#a"/><linearGradient id="k" x1="0.002" y1="0.688" x2="1.002" y2="0.688" gradientUnits="objectBoundingBox"><stop offset="0" stop-color="#cce0f4"/><stop offset="0.23" stop-color="#96cced"/><stop offset="0.61" stop-color="#46ade2"/><stop offset="0.87" stop-color="#139adb"/><stop offset="1" stop-color="#0093d8"/></linearGradient><linearGradient id="l" x1="0.021" y1="0.642" x2="1.025" y2="0.642" xlink:href="#a"/><linearGradient id="m" x1="-0.001" y1="0.7" x2="0.997" y2="0.7" xlink:href="#e"/><linearGradient id="n" x1="-0.032" y1="0.729" x2="0.968" y2="0.729" gradientUnits="objectBoundingBox"><stop offset="0" stop-color="#ffe100"/><stop offset="0.11" stop-color="#ffc51b"/><stop offset="0.27" stop-color="#ffa63b"/><stop offset="0.43" stop-color="#ff8d54"/><stop offset="0.61" stop-color="#ff7b65"/><stop offset="0.79" stop-color="#ff7070"/><stop offset="1" stop-color="#ff6d73"/></linearGradient><linearGradient id="o" x1="0.024" y1="0.649" x2="1.02" y2="0.649" xlink:href="#n"/><linearGradient id="p" x1="-0.01" y1="0.87" x2="0.991" y2="0.87" xlink:href="#a"/><linearGradient id="q" x1="-0.006" y1="0.709" x2="0.995" y2="0.709" xlink:href="#a"/><linearGradient id="r" x1="0.012" y1="0.784" x2="1.012" y2="0.784" xlink:href="#n"/><linearGradient id="s" x1="-0.07" y1="0.68" x2="0.926" y2="0.68" xlink:href="#a"/><linearGradient id="t" x1="-0.028" y1="0.766" x2="0.976" y2="0.766" xlink:href="#a"/><linearGradient id="u" x1="0.026" y1="0.924" x2="1.025" y2="0.924" xlink:href="#d"/><linearGradient id="v" x1="-0.049" y1="0.874" x2="0.953" y2="0.874" xlink:href="#n"/><linearGradient id="w" x1="0.045" y1="0.855" x2="1.04" y2="0.855" xlink:href="#k"/><linearGradient id="x" x1="0.037" y1="0.919" x2="1.039" y2="0.919" xlink:href="#d"/><linearGradient id="y" x1="-0.046" y1="1.029" x2="0.953" y2="1.029" xlink:href="#n"/><linearGradient id="z" x1="0.036" y1="1.228" x2="1.037" y2="1.228" xlink:href="#n"/><linearGradient id="aa" x1="-0.031" y1="1.111" x2="0.969" y2="1.111" xlink:href="#d"/><linearGradient id="ab" x1="-0.067" y1="1.076" x2="0.934" y2="1.076" xlink:href="#k"/><linearGradient id="ac" x1="0.05" y1="0.968" x2="1.048" y2="0.968" xlink:href="#d"/><linearGradient id="ad" x1="0.012" y1="1.011" x2="1.013" y2="1.011" xlink:href="#k"/><linearGradient id="ae" x1="0.024" y1="1.045" x2="1.026" y2="1.045" xlink:href="#k"/><linearGradient id="af" x1="-0.075" y1="1.29" x2="0.926" y2="1.29" xlink:href="#k"/><linearGradient id="ag" x1="0.048" y1="1.162" x2="1.046" y2="1.162" xlink:href="#n"/><linearGradient id="ah" x1="-0.012" y1="1.136" x2="0.989" y2="1.136" xlink:href="#d"/></defs><g transform="translate(0.041)"><g transform="translate(-0.041)"><path d="M538.431,474.154v.7c-.277,4.413-2.515,7.655-5.4,7.8s-5.18-2.673-5.536-7.458A55.619,55.619,0,0,0,516.9,446.167c-6.738-9.3-15.556-13.223-27.054-10.494-8.391,1.985-16.8,3.954-25.306,5.449-15.026,2.7-27.616-1.882-36.908-13.99-2.373-3.061-3.527-7.442-4.065-11.38-.562-4.1,2.372-5.908,6.247-4.358a66.43,66.43,0,0,1,8.454,4.531,22.143,22.143,0,0,1,3.306,2.467c9.276,7.869,18.679,9.245,29.023,1.582a36.789,36.789,0,0,1,19.439-7.426c14.084-.925,24.357,5.947,32.7,16.528,7.774,9.862,11.008,21.59,13.745,33.507.87,3.8,1.463,7.663,2.183,11.5ZM427.059,412.9c-1.234,5.852.9,9.688,4,13.017,8.5,9.118,18.98,12.653,31.261,10.344,8.573-1.621,17.058-3.709,25.615-5.441,14.053-2.847,25.148,1.637,32.985,13.745,5.884,9.079,8.612,19.162,9.34,29.877a42.07,42.07,0,0,0,1.21,5.686c3.772-2.293,3.163-5.109,2.618-7.56-1.582-7.054-3.306-14.061-5.1-21.068a58.63,58.63,0,0,0-9.861-20.34c-9.68-13.191-24.848-20.119-42.246-9.972-3.377,1.969-6.793,3.867-10.281,5.646-5.931,3.037-11.981,3.227-17.794-.166-4.136-2.42-7.979-5.346-12.028-7.908C433.8,416.788,430.657,415.024,427.059,412.9Z" transform="translate(-88.554 -85.938)"/><path d="M181.672,494.1c-3.48-1.028-7.2-1.582-10.407-3.163-6.675-3.29-7.363-11.072-1.582-15.817,4.887-4.033,10.9-4.413,16.876-4.887,5.71-.443,11.467-.672,17.105-1.582,8.928-1.479,14.781-7.616,20.641-13.99a51.957,51.957,0,0,1,12.977-10.328c6.6-3.63,11.246,2.91,10.281,7.719-.728,3.567-2.072,7.544-4.444,10.154-14.535,15.99-32.424,26.406-53.721,30.668-2.467.5-5.014.538-7.529.791Zm.356-3.234.111-.427a43.247,43.247,0,0,0,5.836-.427c18.98-3.954,35.049-13.349,48.6-27.109,3.021-3.06,5.646-6.516,5.971-10.977.127-1.653-.316-3.907-1.4-4.919-.791-.791-3.116-.19-4.69.126a5.639,5.639,0,0,0-2.61,1.582c-3.234,3.242-6.6,6.39-9.49,9.909-5.465,6.635-11.593,12.361-20.324,13.855-6.422,1.1-13.017,1.139-19.486,1.969a63.932,63.932,0,0,0-11.973,2.618,5.143,5.143,0,0,0-3.622,6.287,9.49,9.49,0,0,0,4.191,5.283C175.8,489.954,179.039,490.168,182.028,490.864Z" transform="translate(-34.641 -92.723)"/><path d="M340.477,474.56c.672,16.845-5.726,30.494-18.98,40.807-4.5,3.5-9.529,6.137-15.6,5.069-4.84-.854-7.307-4.318-6.7-9.174,1.012-8.043,5.536-14.235,10.66-20.055a20.067,20.067,0,0,1,4.231-4.049c5.907-3.63,6.9-9.355,7-15.508.079-4.6-.087-9.221.182-13.816a18.649,18.649,0,0,1,1.637-6.588c1.289-2.823,3.488-4.816,6.936-4.816a6.537,6.537,0,0,1,6.611,4.626A169.512,169.512,0,0,1,340.406,468C340.849,470.115,340.485,472.369,340.477,474.56Zm-3.227-8.035c-.791-4.176-1.526-9.15-2.91-13.926-.411-1.431-2.752-3.234-4.16-3.163-1.629.055-3.685,1.637-4.666,3.163a13.111,13.111,0,0,0-1.5,5.876c-.237,3.9-.063,7.821-.15,11.728-.19,8.043-2.111,14.931-8.96,20.522-4.421,3.614-7.418,9.2-10.392,14.282-1.582,2.681-3.163,6.556-.134,9.253s6.619,1,9.711-.554a37.118,37.118,0,0,0,19.953-25.1C335.748,481.677,336.143,474.5,337.25,466.525Z" transform="translate(-62.533 -93.382)"/><path d="M65.457,57.034A20.245,20.245,0,0,1,59.85,71.759a64.055,64.055,0,0,1-8.47,7.552c-8.77,6.327-17.675,4.484-24.737-4.745-12.052-15.745.206-39.185,17.62-41.495a12.6,12.6,0,0,1,5.994,1.06C58.474,37.469,65.56,48.288,65.457,57.034Zm-4.848.846c.158-7.711-3.472-13.555-9.166-18.126-2.119-1.708-5.006-3.44-7.552-3.464-9.411-.063-19.834,12.954-18.189,22.3,1.677,9.213,7.117,15.374,15.935,18.236a9.909,9.909,0,0,0,6.8-.411c7.529-3.764,11.712-10.02,12.2-18.537Z" transform="translate(-4.531 -6.912)"/><path d="M555.733,170.42c1.534,4.041,2.855,7.568,4.2,11.072.791,2.112.538,3.322-2.064,3.907-5.536,1.25-11.072,2.807-16.544,4.35-2.483.7-3.954.245-4.389-2.57-.451-2.7-1.281-5.322-2.064-8.446-2.855.633-5.646,1.052-8.311,1.9-2.468.791-3.843-.119-4.46-2.317-1.439-5.061-2.887-10.13-3.954-15.287-.19-.957,1.242-2.95,2.325-3.329a73.9,73.9,0,0,1,9.11-2.064c-.854-3.44-1.732-6.738-2.483-10.067-.854-3.741,0-5.172,3.733-5.876,4.516-.846,9.055-1.534,13.578-2.293,2.7-.451,4.088.791,4.563,3.377s1.115,5.338,1.755,8.359c2.2-.356,4.183-.712,6.184-1,3.685-.538,5.006.308,5.923,3.954.878,3.44,1.653,6.9,2.467,10.36.474,2.017,0,3.2-2.372,3.654A57.86,57.86,0,0,0,555.733,170.42Zm3.646-17.4c-2.665.475-4.943.751-7.117,1.3-2.625.656-3.954-.474-4.508-2.863a66.915,66.915,0,0,0-1.582-6.659,2.894,2.894,0,0,0-2.372-1.487c-4.255.838-8.454,1.945-13.017,3.053.688,3.408,1.234,6.793,2.072,10.1.68,2.689-.071,4.2-2.839,4.745s-5.741,1.249-8.755,1.922c1.408,5.14,2.728,9.956,4.136,15.073,2.807-.728,5.457-1.321,8.051-2.119,3.385-1.036,4.286-.641,5.109,2.815.649,2.736,1.163,5.536,1.771,8.43l16.607-4.46c-1.384-3.527-2.539-6.746-3.907-9.877-1.218-2.784-.372-4.318,2.436-5.18,2.246-.688,4.421-1.582,6.54-2.372-.957-4.4-1.763-8.288-2.625-12.455Z" transform="translate(-108.347 -29.139)"/><path d="M191.781,17.119c-.933,4.286-1.724,7.489-2.428,10.708-2.3,10.494.261,19.067,9.751,25A119.032,119.032,0,0,1,209.923,60.2a40.411,40.411,0,0,1,7.5,7.4,7.117,7.117,0,0,1,.063,8.7c-1.882,2.546-4.524,2.032-7.22,1.384-13.887-3.306-25.48-9.949-31.736-23.329s-3.266-26.168,4.286-38.157c1.352-2.151,3.551-3.812,6.1-2.618C190.358,14.233,191.149,16.281,191.781,17.119Zm-2.618-.127-1.107-.656c-.981.791-2.325,1.352-2.879,2.372-5.006,9.142-8.486,18.663-5.623,29.261C183.383,62.2,193.6,70.112,206.846,74.652c2.467.838,7.212.9,7.987-.4,1.637-2.768-1.21-5.48-3.59-7.268-4.136-3.1-8.7-5.678-12.7-8.9a52.329,52.329,0,0,1-9.751-9.537c-4.958-6.825-3.828-14.527-1.819-22.143C187.8,23.319,188.476,20.156,189.164,16.993Z" transform="translate(-36.605 -2.758)"/><path d="M61,356.22c.735-18.489,9.1-32.187,22.285-43.132a57.053,57.053,0,0,1,13.238-7.813c4.4-1.961,8.288-.206,9.925,3.424s0,7.718-4.4,9.83a47.724,47.724,0,0,1-9.3,3.424C83.863,324.144,80.5,332.068,80.2,339.794a141.357,141.357,0,0,1-2.1,18.023c-.34,2-1.779,3.954-3.068,5.639-1.8,2.372-4.2,4.191-7.41,3.266s-5.093-3.448-5.963-6.611A30.324,30.324,0,0,1,61,356.22Zm5.212-1.7a42.455,42.455,0,0,0,1.06,6.137c.862,2.792,2.981,3.369,4.9,1.147a15.727,15.727,0,0,0,3.78-6.754c1.123-5.71,1.582-11.554,2.246-17.359.791-7.639,4.294-13.444,11.451-16.663,3.116-1.4,6.374-2.483,9.529-3.8,4.4-1.835,6.374-4.626,5.251-7.291-1.178-2.823-4.745-3.472-9.055-.894-16.979,10.123-27.742,24.437-29.158,45.48Z" transform="translate(-12.727 -63.686)"/><path d="M460.181,125.246c-10.85-.063-20.142-6.042-23.132-13.982a10.852,10.852,0,0,1,.277-9.3c7.908-15.089,28.106-18.094,39.407-6.619,5.219,5.306,6.153,12.028,3.851,18.917-2.2,6.572-7.5,9.49-14.14,10.281C463.945,124.834,461.446,125.1,460.181,125.246Zm2.523-2.784c.854,0,2.119.079,3.385,0,5.125-.348,9.411-3.234,10.486-7.023,2.444-8.573-2.491-18.616-10.795-21.858-8.928-3.488-15.817.451-22.032,6.327-3.488,3.266-3.867,6.121-2.246,10.581,2.673,7.323,13.215,12.748,21.2,11.965Z" transform="translate(-91.197 -18.484)"/><path d="M204.04,556.1a71.122,71.122,0,0,0,1.518,6.975c.743,2.293-.253,3.219-2.238,3.646-4.571.965-9.134,2.056-13.752,2.713-.878.119-2.554-1.36-2.918-2.42a52.234,52.234,0,0,1-1.447-7.394c-2.5.72-4.951,1.305-7.3,2.143s-3.622-.158-4.136-2.222c-1.257-5.109-2.436-10.281-3.472-15.405-.514-2.586.467-4.255,3.464-4.207,1.669,0,3.345-.19,5.275-.324-.546-2.736-.941-5.085-1.487-7.394s.593-3.5,2.713-3.867c4.848-.846,9.727-1.582,14.575-2.42,2.111-.371,2.871.514,3.163,2.507.332,2.467.933,4.887,1.495,7.726,3.456-.941,6.635-1.724,9.751-2.7,2.025-.625,3.068.095,3.559,2,1.234,4.745,2.562,9.49,3.669,14.282.546,2.372.206,4.176-3,4.468A84.744,84.744,0,0,0,204.04,556.1Zm-14.353,11.072c2.246-.332,4.049-.585,5.844-.87,8.2-1.289,8.3-1.313,6.232-9.269-.5-1.961-.166-2.776,1.748-3.163,3.575-.7,7.117-1.471,10.739-2.222-1.431-5.077-2.815-10-4.231-15.026-3.25.554-6.39,1.028-9.49,1.653-2.009.4-3.013-.237-3.353-2.286-.38-2.373-.981-4.642-1.5-7.023L181.106,531.5c.554,2.546,1.076,4.745,1.495,6.991.372,1.953-.142,3.44-2.42,3.717l-7.054.862,3.907,16.758a58.892,58.892,0,0,0,7.568-2.546c2.855-1.408,3.764-.221,4.112,2.372.3,2.309.6,4.674.988,7.481Z" transform="translate(-35.562 -109.992)"/><path d="M382.662,66.466a5.657,5.657,0,0,1,6.137,3.163c1.265,2.784.111,5.591-2.127,7.45a41.988,41.988,0,0,1-8.739,5.987c-10.771,5.053-16.1,13.855-18.11,25.109-.506,2.823-1.582,5.2-4.666,5.6s-4.966-1.4-6.287-3.954c-2.633-5.053-1.787-10.281-.648-15.484C352,77.063,369.455,67.209,382.662,66.466Zm-31.491,37.256a34.932,34.932,0,0,0,1.329,5.718,3.2,3.2,0,0,0,2.578,1.669c.783-.127,1.621-1.471,1.9-2.436.728-2.507,1.186-5.1,1.708-7.663,1.819-8.952,6.951-15.318,15.026-19.407a71.006,71.006,0,0,0,7.015-3.654,20.357,20.357,0,0,0,4.856-4.3c1.874-2.372.577-5.2-2.372-4.919-3.9.372-8.177.743-11.491,2.562-12.693,6.943-18.363,18.584-20.546,32.432Z" transform="translate(-72.579 -13.892)"/><path d="M506.86,316.908c10.4.981,23.108,7.268,22.847,20.269-.237,11.388-9.49,20.641-20.7,20.561-9.537-.063-21.4-11.862-20.807-21.352C488.9,325.377,498.066,316.575,506.86,316.908Zm17.4,19.6c0-8.636-8.122-16.133-17.628-16.22-7.5-.071-15.682,8.47-15.706,16.386,0,8.612,8.889,17.533,17.541,17.564,9.047.032,15.753-7.5,15.785-17.73Z" transform="translate(-102.083 -66.287)"/><path d="M379.786,556.334a11.271,11.271,0,0,1-2.736-.483c-13.444-5.2-23.345-15.081-24.27-31.048-.229-3.82-1.091-7.75-.451-11.427.53-3.092,2.626-6.01,4.373-8.786,1.479-2.372,3.812-3.907,6.738-2.894s3.907,3.741,3.875,6.643a21.352,21.352,0,0,1-.791,5.757c-2.175,7.276.522,13.017,5.449,18.086,3.361,3.464,6.951,6.714,10.138,10.281a20.142,20.142,0,0,1,3.78,6.445C387.512,553.44,385.124,556.437,379.786,556.334Zm-27.157-38.885.791.49c.245,1.455.561,2.91.735,4.373,1.582,13.555,8.913,23.061,20.941,28.976,1.993.98,4.658.585,7.007.791-.878-2.127-1.329-4.618-2.728-6.327-2.547-3.084-5.686-5.662-8.525-8.517-6.627-6.659-9.672-14.235-6.659-23.725a14.852,14.852,0,0,0,.3-6.754c-.474-2.768-3.575-3.669-5.14-1.392C356.765,509.17,354.843,513.4,352.629,517.449Z" transform="translate(-73.617 -104.876)"/><path d="M24.554,270.939c3.456-.633,6.54-1.242,9.648-1.748,1.985-.324,2.887.656,3.163,2.633.688,4.848,1.408,9.7,2.372,14.5.4,1.961-.158,2.847-1.969,3.163-2.372.411-4.745.9-7.117,1.139-1.93.182-2.626,1.083-2.372,2.918.245,2.151.372,4.326.7,6.469s-.585,3.2-2.61,3.654q-5.694,1.257-11.348,2.649c-2.546.625-3.788-.427-3.851-2.9-.079-2.855,0-5.718,0-8.928-2.863.593-5.188,1.163-7.537,1.542C.648,296.5.063,295.613.2,292.718a95.563,95.563,0,0,0-.214-11.657c-.253-3.5.949-5.2,4.587-5.117a14.662,14.662,0,0,0,3.408-.791c-.609-2.2-1.273-4.247-1.732-6.327s0-3.385,2.491-3.954c3.535-.791,6.936-2.214,10.4-3.345,3.163-1.036,4-.435,4.389,2.95C23.819,266.6,24.206,268.693,24.554,270.939Zm13.3,16.093c-.949-5.409-1.858-10.573-2.792-15.927-3.282.791-6.034,1.51-8.81,2.119-1.827.4-3.353.419-3.606-2.214a76.147,76.147,0,0,0-1.534-7.829l-11.72,3.954c.878,2.776,1.748,5.14,2.372,7.576.561,2.143,0,3.543-2.673,3.543a42.268,42.268,0,0,0-5.536.648L3.5,292.576l7.56-1.827c2.626-.656,4.041.348,4.081,3.053.047,2.863,0,5.718,0,8.873,3.329-.6,6.327-1.313,9.363-1.637,2.285-.253,2.523-1.463,2.293-3.3s-.316-3.883-.554-5.82c-.261-2.135.561-3.163,2.752-3.393C31.885,288.187,34.788,287.562,37.856,287.032Z" transform="translate(0.041 -54.609)"/><path d="M524.285,66.454c-1.51,1.321-2.989,2.23-4.508,0-6.382-9.387-12.819-18.735-19.154-28.145-2.918-4.334-2.262-5.781,2.95-6.24,8.217-.735,16.457-1.25,24.682-1.9,1.36-.1,2.689-.467,4.049-.648,3.274-.443,4.136.49,3,3.567-1.582,4.183-3.535,8.217-4.9,12.448-2.246,6.951-4.144,14.013-6.184,21.028ZM503.17,37.194l17.691,25.219c3.345-9.442,6.509-18.347,9.791-27.608Z" transform="translate(-104.325 -6.154)"/><path d="M426.782,507.585a18.328,18.328,0,0,1-.3,2.736c-.482,1.827-1.479,2.523-3.258,1.265-8.351-5.892-16.734-11.744-25.077-17.651-2.863-2.032-3.543-4.832-1.408-8.153a75.12,75.12,0,0,1,7.41-9.49c4.856-5.385,9.9-10.589,14.907-15.816,2.372-2.483,3.772-2.175,4.745,1.091a21.253,21.253,0,0,1,1.052,5.37c.546,13.555,1,27.109,1.471,40.664Zm-4.919-.6.174-44.642-1.083-.166c-2.649,2.823-5.465,5.536-7.908,8.485-4.239,5.132-8.3,10.407-12.345,15.7-1.447,1.9-1.3,3.511.941,5.156C408.546,496.608,415.323,501.962,421.863,506.984Z" transform="translate(-82.694 -95.976)"/><path d="M78.939,131.94c11.182,0,19.771,5.306,27.03,13.159a17.541,17.541,0,0,1,2.784,4.318c1.091,2.23,1.977,5.1-.356,6.572-1.835,1.155-4.634,1.012-7,.973-1.091,0-2.222-1.091-3.219-1.851a39.47,39.47,0,0,0-19.138-7.766c-4.745-.617-8.359,2.167-11.325,5.536a15.161,15.161,0,0,1-12.59,5.2c-4.516-.15-6.129-2.8-4.2-6.951a12.978,12.978,0,0,1,2.42-3.725c5.583-5.536,10.344-12.187,18.466-14.409A54.464,54.464,0,0,1,78.939,131.94Zm3.4,2.665c-11.222-.063-24.864,8.6-28.762,16.7-1.147,2.372.229,3.282,1.969,2.942a22.31,22.31,0,0,0,6.92-2.7c2.562-1.5,4.745-3.567,7.212-5.291,4.3-3.06,8.936-3.575,13.642-1.147,5.876,3.029,11.554,6.437,17.493,9.332,1.692.791,4.516,1.257,5.892.388,2.246-1.408.538-3.836-.561-5.441C99.912,140.236,91.553,134.692,82.34,134.605Z" transform="translate(-10.453 -27.599)"/><path d="M522.33,256.807c-3.061.15-5.67-1.5-7.386-4.547s-3.543-6.192-5.022-9.427c-3.25-7.117-9.126-10.186-16.481-11.253-2.871-.419-6.611-.3-7.117-4-.585-3.954,3.234-4.745,5.963-6.034a17.663,17.663,0,0,1,16.568.727A61.985,61.985,0,0,1,529.2,240.05c1.178,1.582,1.764,3.669,2.523,5.536C533.805,250.915,529.416,257,522.33,256.807ZM488.262,226.9l-.158,1.423c2.886.633,5.749,1.637,8.7,1.835,7.181.467,12.8,3.219,16.26,9.759,1.993,3.756,3.954,7.513,6.1,11.2a4.726,4.726,0,0,0,5.852,2.436c2.523-.767,4.966-2.254,4.571-5.219-.364-2.7-1.091-5.781-2.744-7.813a55.356,55.356,0,0,0-22.372-16.157c-5.963-2.42-11.174-.4-16.2,2.539Z" transform="translate(-101.682 -45.981)"/><path d="M103.461,449.791c-3.693,0-4.539-1.4-2.792-4.745q6.92-13.088,13.919-26.1c1.645-3.06,2.372-2.942,5-.467,7.481,7.118,15.1,14.124,22.633,21.218.593.562,1.257,1.582,1.123,2.23a2.76,2.76,0,0,1-1.945,1.495q-18.268,3.262-36.56,6.327A8,8,0,0,1,103.461,449.791Zm32.772-9.593c-5.931-6.58-12.139-13.444-18.822-20.838l-13.824,26.888Z" transform="translate(-20.842 -87.15)"/><path d="M421.488,29.424c-.047,8.968-4.01,15.374-10.739,17.4-2.46.791-4.745.894-6.6-1.329s-.933-4.191.316-6.327c2.776-4.745,1.874-9.688,1.083-14.725a114.152,114.152,0,0,1-1.091-12.305,5.994,5.994,0,0,1,.933-3.859c1.471-1.724,3.353-4.009,5.251-4.2,1.621-.158,4.073,1.938,5.156,3.662C419.969,14.3,420.895,21.856,421.488,29.424Zm-2.475.127c-.127-8.446-1.3-14.7-4.6-20.364-.735-1.273-2.372-2.025-3.63-3.013-.933,1.487-2.23,2.871-2.7,4.5a13.223,13.223,0,0,0,0,5.14c.411,3.3,1.052,6.572,1.542,9.862.664,4.4.467,8.652-1.582,12.772-.728,1.471-.735,3.29-1.076,4.958a41.516,41.516,0,0,0,5.726-1.313,7.192,7.192,0,0,0,2.515-2.293A15.624,15.624,0,0,0,419.012,29.55Z" transform="translate(-84.287 -0.851)"/><path d="M204.375,114.186a25.146,25.146,0,0,1-.87,3.575c-1.629,4.4-5.5,5.433-8.921,2.2a14.014,14.014,0,0,1-3.63-5.283,15.484,15.484,0,0,0-9.387-9.854c-4.365-1.771-8.177-4.286-9.49-9.245-.965-3.575.324-5.868,3.567-6.493C187.688,86.776,204.691,101.145,204.375,114.186Zm-3.29-3.25c-.451-10.154-12.653-20.633-23.432-19.62-.846.079-2.222.546-2.325,1.036a3.29,3.29,0,0,0,.846,2.713,29.681,29.681,0,0,0,5.662,3.828,19.936,19.936,0,0,1,10.953,13.017A11.207,11.207,0,0,0,194.371,116c1.115,1.265,2.807,2.017,4.255,2.989A37.007,37.007,0,0,0,201,114.478c.34-.909.071-2.048.071-3.543Z" transform="translate(-35.896 -18.583)"/><path d="M539.237,339.883a45.581,45.581,0,0,0-8.153-19.715c-8.082-11.68-18.062-13.824-30.328-6.667l-1.392.791c-.19-.388-.411-.7-.356-.751,9.332-9.529,16.884-12.361,27.023-4.911,8.873,6.517,14.646,15.152,15.026,26.588.055,1.582-.593,3.219-.917,4.832Z" transform="translate(-104.346 -63.671)"/><path d="M63.431,28.55c3.859.071,6.659,2.966,9.593,5.259a54.052,54.052,0,0,1,7.363,7.252c5.876,6.8,5.3,15.026,4.856,23.227-.324,5.939-3.076,10.415-7.829,13.855C72.455,81.725,67.6,85.434,62.7,89.1l-.886-1a22.419,22.419,0,0,1,1.582-1.661c4.571-4.017,9.332-7.837,13.642-12.123a11.828,11.828,0,0,0,2.855-6.327c.68-3.954.561-8.019,1.115-12,.846-5.979-.506-11.238-4.745-15.492C72.154,36.435,67.8,32.615,63.431,28.55Z" transform="translate(-12.897 -5.972)"/><path d="M135.86,502.23c.19,7.26-13.144,19.162-20.356,18.189a7.75,7.75,0,0,1-6.327-10.913c2.151-5.243,5.7-9.1,11.269-10.787,2.728-.791,5.488-1.621,8.28-2.222A5.68,5.68,0,0,1,135.86,502.23Zm-20.119,15.026c4.658-.079,16.647-10.621,17.454-15.445.3-1.756,0-3.013-2.372-2.167-4.3,1.582-8.833,2.586-12.938,4.531a18.054,18.054,0,0,0-6.58,5.71C109.035,513.056,111.835,517.319,115.741,517.256Z" transform="translate(-22.66 -103.82)"/><path d="M472.115,54.983a4.974,4.974,0,0,1-.973,1.985c-.293.261-1.4-.206-2.025-.561-6.762-3.859-13.531-7.718-20.237-11.688a18.43,18.43,0,0,1-3.061-2.934c1.028-.989,1.882-2.333,3.1-2.918,4.856-2.325,9.822-4.429,14.757-6.58,2.064-.9,4.112-.894,4.634,1.692C469.687,40.812,470.818,47.708,472.115,54.983ZM450.858,42.14l17.556,9.648C467.5,46,466.6,40.345,465.67,34.39Z" transform="translate(-93.222 -6.64)"/><path d="M271.935,538.59a36.323,36.323,0,0,1,5.536,3.5c2.009,1.732,1.819,3.954.324,6.192-2.088,3.116-3.954,6.327-6.05,9.49a22.8,22.8,0,0,1-3.266,3.954c-2.27,2.127-4.871,3.44-8.1,2.12-3.582-1.479-4.452-4.919-4.239-7.908a28.619,28.619,0,0,1,3.084-10.423C261.559,540.891,266.075,539.357,271.935,538.59Zm-8.652,23.068c2.879-.791,4.539-3.163,6.026-6.026a46.232,46.232,0,0,1,5.148-7.956c2.214-2.7,2.08-4.207-1.17-5.615-3.954-1.716-9.727.862-11.507,5.536a44.1,44.1,0,0,0-2.372,9.624C259.131,559.42,259.772,561.659,263.283,561.659Z" transform="translate(-53.54 -112.66)"/><path d="M414.4,576c-7.537.965-16.5-10.692-16.046-16.544.237-2.981.989-5.876,4.255-6.825s4.84,1.51,6.785,3.59c2.111,2.262,4.8,3.954,7.252,5.907.166.126.451.087.664.166,5.741,2.064,7.908,4.524,7.22,8.146C423.947,573.441,419.249,576.051,414.4,576Zm.419-2.7a5.173,5.173,0,0,0,2.475-.356,43.555,43.555,0,0,0,4.46-3.765c-1.36-1.368-2.531-3.029-4.112-4.057-3.479-2.278-7.157-4.27-10.795-6.327a33.79,33.79,0,0,0-3.646-1.582c-.49,1.329-1.321,2.641-1.392,3.994C401.5,567.3,407.822,573.315,414.82,573.3Z" transform="translate(-83.29 -115.554)"/><path d="M264.42,88.21c4.286-5.536,8.446-10.977,12.693-16.346,1.906-2.42,3.4-2.372,4.516.285,2.08,4.966,3.954,10.012,5.71,15.1.617,1.819.482,4.033-2.317,3.836-6.508-.467-13-1.155-19.5-1.787C265.258,89.238,265.037,88.8,264.42,88.21Zm13.9-14.361-9.988,12.716,15.026.791Z" transform="translate(-55.278 -14.663)"/><path d="M46.64,526.7,70.752,512.87c.4,1.724.846,3.487,1.242,5.267.791,3.337,1.582,6.667,2.175,10.043.364,2.127-.7,3.282-2.981,2.95-7.038-1.02-14.069-2.032-21.1-3.108A23.2,23.2,0,0,1,46.64,526.7Zm24.8.506c-.712-3.669-1.384-7.157-2.056-10.613l-15.279,8.833Z" transform="translate(-9.724 -107.28)"/><path d="M12.063,153.984a11.688,11.688,0,0,1,10.526,4.611c2.539,3.29,2.586,5.979-.261,8.9A41.838,41.838,0,0,1,16,172.8c-3.2,2.183-6.2,1.756-8.47-1.376a30.841,30.841,0,0,1-4.223-7.805C1.419,158.16,5.048,154.174,12.063,153.984Zm.538,15.279c3.82,0,8.351-4.057,8.248-7.363-.095-2.926-3.78-5.868-7.908-5.607-4.318.277-7.7,1.779-7.813,5.045C5,165.269,8.8,169.3,12.6,169.295Z" transform="translate(-0.556 -32.197)"/><path d="M303.583,35.084c-5.718-.166-11.356-5.678-11.293-11.325,0-1.36.656-3.5,1.582-3.907,3.764-1.582,7.75-3.638,11.68-3.693,3.646-.047,4.682,4.334,5.639,7.41C312.915,29.082,308.668,35.227,303.583,35.084Zm.253-16.678c-5.536.569-8.414,2.42-8.32,4.951.142,4.112,3.654,7.212,8.5,7.22,2.8,0,5.378-2.372,5.251-4.856C309.1,22.471,306.05,18.358,303.836,18.406Z" transform="translate(-61.107 -3.38)"/><path d="M440.073,507.555a10.654,10.654,0,0,1-.9-2.143c-.585-14.014-1.17-28.027-1.582-42.048,0-.862.989-1.756,1.518-2.633.735.9,2.017,1.74,2.119,2.7a140.749,140.749,0,0,1,1.2,16.489c-.087,7.687-.791,15.374-1.273,23.052A34.059,34.059,0,0,1,440.073,507.555Z" transform="translate(-91.501 -96.373)"/><path d="M480.57,494.274c.095-6.6,3.954-11.594,8.841-11.4,3.717.15,7.908,5.093,7.806,9.15-.158,5.441-4.943,10.795-9.648,10.818C483.567,502.863,480.5,499.106,480.57,494.274Zm13.12-3.551-4.207-5.607a73.448,73.448,0,0,0-5.923,4.595c-.633.585-.68,1.906-.791,2.918-.237,2.507,0,5.125,2.713,6.034,2.894.965,5.125-.791,6.619-3.124C492.82,494.432,492.978,492.977,493.689,490.724Z" transform="translate(-100.491 -101.005)"/><path d="M522.877,385.2c.063-5.386,5.789-9.735,10.937-8.082a31.457,31.457,0,0,1,7.355,3.369c3.543,2.286,4.745,5.457,3.685,8.383-1.139,3.163-4.745,5.306-8.7,4.784a51.693,51.693,0,0,1-8.644-2A6.279,6.279,0,0,1,522.877,385.2Zm12.891,6.667.443-.791c.68-.039,1.526.166,2.025-.15,1.645-1.052,4.049-2.04,4.484-3.535s-.791-4.263-2.112-5.1a17.943,17.943,0,0,0-8.414-2.815c-1.534-.071-3.653,2.088-4.579,3.756-.577,1.036.095,3.622,1.091,4.484C530.737,389.477,533.379,390.528,535.767,391.865Z" transform="translate(-109.338 -78.809)"/><path d="M527.191,73.68c-.451,2.032-1.78,4.413-2.372,7.023L505.625,62.3c-.261.791-.451,1.1-.38,1.178,5.915,6.406,11.807,12.827,17.794,19.162,2.032,2.151,4.089,1.708,5.037-.981,1.953-5.488,3.63-11.072,5.3-16.655.214-.688-.269-1.582-.427-2.372l-1.147-.261Z" transform="translate(-105.649 -13.032)"/><path d="M113.453,327.644c-1.21.672-2.436,1.321-3.646,2.009-3.163,1.8-6.461,3.472-9.49,5.48-5.362,3.519-7.339,8.6-6.081,14.875.838,4.176,1.582,8.375-.467,12.353a12.9,12.9,0,0,1-4.16,4.5c5.4-5.836,3.29-12.321,2.111-18.719-1.835-10,1.044-15.026,10.494-18.189,3.582-1.194,7.252-2.127,10.882-3.163Z" transform="translate(-18.712 -68.356)"/><path d="M222.064,537.067l-4.057-8.849c-2.807.522-5.718.965-8.58,1.582-3.068.7-5.212.174-5.678-3.393a23.1,23.1,0,0,0-.6-2.317c-.53-2.285-1.582-3.6-4.286-3.163a50.721,50.721,0,0,1-7.2.482,15.685,15.685,0,0,1-2.966-.53l-.04-1.471c4.611-.617,9.213-1.36,13.847-1.708.791-.063,2.009,1.432,2.531,2.46a26.18,26.18,0,0,1,1.74,5.172c.435,1.684,1.376,2.167,3.005,1.756,2.428-.609,4.879-1.139,7.315-1.716,2.072-.49,3.677-.055,4.263,2.222.791,2.989,1.463,5.995,2.191,8.992Z" transform="translate(-39.431 -108.289)"/><path d="M56.359,390.39a6.6,6.6,0,0,1,5.923,5.37c.411,2.372.791,4.745,1.123,7.117.5,3.416-1.242,6.991-4,8.019-3.472,1.289-5.789-.4-7.347-3.3a36.44,36.44,0,0,1-3.345-7.442C47.454,395.617,51.8,390.295,56.359,390.39Zm4.626,11.483-.617-.451c-.237-1.447-.134-3.1-.791-4.286-.791-1.384-2.372-3.4-3.456-3.3-1.684.166-4.183,1.582-4.587,2.981a9.419,9.419,0,0,0,.886,6.659c1.1,1.93,3.48,3.163,5.3,4.666Q59.333,405,60.985,401.873Z" transform="translate(-10.111 -81.66)"/><path d="M47.007,278.72q1.186,4.508,2.372,9.023c.119.435.055.917.158,1.368,1.582,7.054,1.455,7.189-5.726,8.027-2.222.261-4.421.727-6.682,1.107.506,4.1,1.076,7.813,1.329,11.546.063.973-.672,2.7-1.4,2.918-4.563,1.408-9.221,2.5-13.863,3.654-.356.087-.791-.158-1.194-.245l-.261-.965,14.369-5.2c-.3-3.163-.577-6.437-.941-9.711-.229-2.1.2-3.519,2.657-3.954,3.353-.562,6.659-1.416,10.162-2.183-.316-5.148-2.839-10.028-2.293-15.184Z" transform="translate(-4.515 -58.301)"/><path d="M340.109,104.154c-5.536-15.073,9.49-39.541,23.6-38.395C347.321,73.644,341.263,87.389,340.109,104.154Z" transform="translate(-70.864 -13.747)"/><path d="M320.611,449.692c-.609,8.533-1.155,17.066-1.882,25.591a8.761,8.761,0,0,1-1.582,4.484c-4.808,6.066-9.814,11.965-14.749,17.928l-.989-.617a25.709,25.709,0,0,1,2-3.851c2.879-3.859,5.8-7.71,8.889-11.4,3.163-3.82,4.183-8.256,4.516-13.049s.791-9.569,1.471-14.322c.237-1.7,1.257-3.3,1.914-4.943Z" transform="translate(-63.015 -94.026)"/><path d="M135.7,109.387c0,4.073-1.487,6.24-4.255,7.457s-4.951.214-6.809-1.8c-2.523-2.72-4.966-5.536-3.519-9.688a6.066,6.066,0,0,1,8.928-3.393C133.271,103.8,135.651,106.318,135.7,109.387Zm-10.281-5.37c-.538.87-1.787,2.088-2.025,3.488-.38,2.27,3.606,6.706,5.449,6.05a5.876,5.876,0,0,0,3.234-3.662c.506-2.349-3.3-5.892-6.682-5.876Z" transform="translate(-25.212 -21.147)"/><path d="M201.29,460.909c3.337-.743,6.651-1.645,10.012-2.2,4.919-.791,8.525-3.583,11.949-6.967a129.173,129.173,0,0,1,10.352-9.031c1.416-1.123,3.337-1.582,5.03-2.373l.546.9c-1.17.941-2.428,1.787-3.5,2.831-3.163,3.163-6.564,6.137-9.411,9.569-4.2,5.069-9.672,7.117-15.9,7.734-2.966.3-5.947.459-8.928.68Z" transform="translate(-42.072 -92.108)"/><path d="M59.57,469.427c1.115-5.441,1.945-9.9,2.973-14.314.5-2.127,1.669-2.42,3.377-.838,3.1,2.871,6.327,5.615,9.49,8.391,2.048,1.787,1.4,3.353-.7,4.152a129.52,129.52,0,0,1-12.653,4.057C61.278,471.079,60.116,469.767,59.57,469.427Zm2.768-1.242,9.656-4.152-7.473-7.6C63.864,460.111,63.152,463.8,62.338,468.185Z" transform="translate(-12.428 -94.813)"/><path d="M179.745,68.363c-12.139-9.79-13.745-25.235-8.6-44.6C169.662,39.45,169.662,54.847,179.745,68.363Z" transform="translate(-35.19 -4.97)"/><path d="M552.155,278.68c4.855,0,11.665,7.015,11.554,10.89-.1,3.519-4.271,6.5-7.41,4.824a20.925,20.925,0,0,1-7.276-6.01c-1.068-1.582-.688-4.587-.047-6.675C549.4,280.293,551.4,279.344,552.155,278.68Zm-.656,6.066c-.372,4.943,3.163,5.362,5.409,6.762a4.189,4.189,0,0,0,3.954-.6c.641-.593.474-2.76-.111-3.788a12.837,12.837,0,0,0-3.733-3.954c-1.06-.791-2.863-1.495-3.828-1.068S551.712,284.374,551.5,284.746Z" transform="translate(-114.669 -58.293)"/><path d="M459.266,303.66c2.926,10.8-7.117,37.548-16.536,43.835C452.568,334.494,455.873,319.089,459.266,303.66Z" transform="translate(-92.576 -63.518)"/><path d="M166.223,390.824c-9.616-1.495-28.209-21.684-28.723-31.325A118.18,118.18,0,0,0,166.223,390.824Z" transform="translate(-28.729 -75.198)"/><path d="M107.736,238.369c-4.31-13.839-8.1-27.679-.111-41.439-.474,6.73-1.344,13.563-1.321,20.4C106.344,224.34,107.246,231.355,107.736,238.369Z" transform="translate(-21.504 -41.193)"/><path d="M479.78,86.13c7.908.34,11.9,5.2,14.29,11.775,2.7,7.41,2.736,14.607-2.681,21.139,2.372-6.168,3.274-12.361,1.249-18.814C490.527,93.508,483.829,91.073,479.78,86.13Z" transform="translate(-100.326 -18.016)"/><path d="M488.169,187.732c-6.864-10.518-13.515-20.7-20.229-30.992C475,159.935,489.008,181.05,488.169,187.732Z" transform="translate(-97.849 -32.786)"/><path d="M131.52,374.28l19.3,18.861C145.043,392.034,132.453,379.911,131.52,374.28Z" transform="translate(-27.478 -78.29)"/><path d="M476.171,64.052l.063-15.3H477.4c.372,3.337.791,6.667,1.107,10,.095.917,0,1.843.095,2.752.475,5.892-.372,6.619-5.623,4.3-4.8-2.112-9.49-4.492-14.235-6.785a2.507,2.507,0,0,1-1.431-1.985Z" transform="translate(-95.626 -10.197)"/><path d="M453.42,155.32c13.278,8.122,17.857,21.748,24.6,33.808C469.948,178.04,461.882,166.929,453.42,155.32Z" transform="translate(-94.812 -32.489)"/><path d="M402.441,0c-.15,1.582,0,2.112-.261,2.372-4.017,4.421-3.677,9.49-2.546,14.836a76.937,76.937,0,0,1,1.107,11.554,5.322,5.322,0,0,1-1.487,3.472,16.119,16.119,0,0,1-.459-1.684c-.68-3.907-1.162-7.853-2.04-11.7-1.186-5.18-1.5-10.217,1.542-14.86C399.144,2.665,400.583,1.748,402.441,0Z" transform="translate(-82.781)"/><path d="M19.72,147.782c4.381-.791,11.182,2.966,13.017,6.762,2.5,5.164,2.167,9.854-1.1,12.709.158-1.787.648-3.448.372-4.966-.561-3.084-1.8-5.8-4.745-7.608a55.713,55.713,0,0,1-6.406-5.227A9.158,9.158,0,0,1,19.72,147.782Z" transform="translate(-4.093 -30.89)"/><path d="M457.83,343.575l10.178-27.355C471.029,322.373,464.671,339.217,457.83,343.575Z" transform="translate(-95.734 -66.145)"/><path d="M291.127,98.3h7.663c-1.811-3.891-3.5-7.236-4.887-10.7-.356-.894.253-2.175.419-3.274.838.633,1.985,1.091,2.452,1.938,1.9,3.385,3.638,6.864,5.322,10.368,1.3,2.681.4,4.3-2.594,4.223a82.845,82.845,0,0,1-8.652-1.076Z" transform="translate(-60.806 -17.64)"/><path d="M96.9,234.121c-6.88-7.236-7.608-20.411-1.257-28.051C95.267,216.05,91.7,225.327,96.9,234.121Z" transform="translate(-19.062 -43.105)"/><path d="M526.332,269.653c-6.54,3.369-11.744-3.163-11.672-14.053C518.4,260.337,519.334,267.3,526.332,269.653Z" transform="translate(-107.621 -53.465)"/><path d="M402.33,547.985c.625-1.827,2.847-2.317,4.508-1.582,5.006,2.112,9.806,4.745,14.686,7.117l-.664,1.582c-3.424-1.194-6.88-2.317-10.281-3.59C407.929,550.444,405.351,549.258,402.33,547.985Z" transform="translate(-84.125 -114.225)"/><path d="M321.945,31.9c.791-6.477-2.246-10.589-5.132-14.8-.443-.648-.237-1.748-.332-2.641a5.685,5.685,0,0,1,2.143.174c3.891,2.04,6.849,11.317,4.927,15.295a15.937,15.937,0,0,1-1.605,1.977Z" transform="translate(-66.167 -3.022)"/><path d="M479.06,155.1c5.813,1.439,13.871,11.767,12.345,16.718Z" transform="translate(-100.175 -32.443)"/><path d="M250.884,550.66c1.321,6.1,2.578,11.688,3.7,17.3a2.032,2.032,0,0,1-1,1.716,2.174,2.174,0,0,1-1.851-.957A25.354,25.354,0,0,1,250.884,550.66Z" transform="translate(-52.181 -115.184)"/><path d="M127.15,385.72l13.942,12.5C135.161,398.745,128.067,392.466,127.15,385.72Z" transform="translate(-26.564 -80.683)"/><path d="M83.135,231.123c-4.27-6.366-4.12-10.929.909-16.433C83.728,220.376,83.435,225.746,83.135,231.123Z" transform="translate(-16.721 -44.908)"/><path d="M466.19,343.383c2.57-5.844,4.982-11.309,7.473-16.963C475.364,331.877,471.86,339.975,466.19,343.383Z" transform="translate(-97.483 -68.279)"/><path d="M552.86,273.5a6.5,6.5,0,0,1,6.635-1.582,8.27,8.27,0,0,1,5.971,6.991Z" transform="translate(-115.612 -56.809)"/><path d="M490.7,367.85c-3.48-4.69-6.516-9.553-6.05-15.817l1.02-.4q3.076,7.908,6.161,15.816Z" transform="translate(-101.334 -73.552)"/><path d="M56.676,460.905c0-3.163-.087-6.327.134-9.49,0-.641,1.289-1.2,1.977-1.8.522.791,1.582,1.669,1.455,2.373-.53,3.06-1.4,6.058-2.151,9.078Z" transform="translate(-11.819 -94.049)"/><path d="M368.6,566.345c-4.089,1.384-11.7-3.543-11.862-8.335Z" transform="translate(-74.589 -116.722)"/><path d="M69.329,392.392c-2.056-1.582-4.168-3.163-6.121-4.9a2.191,2.191,0,0,1,.071-1.961c.735-.293,2.025-.49,2.436-.071,1.748,1.764,3.25,3.764,4.84,5.678Z" transform="translate(-13.148 -80.578)"/><path d="M476,483.174c2.2-2.641,4.4-5.275,6.9-8.264,1.423,3.519-.6,5.995-6.176,8.921Z" transform="translate(-99.535 -99.339)"/><path class="a" d="M427.91,413.44c3.567,2.127,6.706,3.891,9.727,5.828,4.049,2.594,7.908,5.536,12.028,7.908,5.813,3.393,11.862,3.163,17.794.166,3.48-1.779,6.9-3.677,10.281-5.646,17.343-10.146,32.535-3.219,42.246,9.972a58.632,58.632,0,0,1,9.862,20.34c1.8,7.007,3.559,14.013,5.1,21.068.538,2.452,1.155,5.267-2.618,7.56a42.072,42.072,0,0,1-1.21-5.686c-.728-10.716-3.456-20.8-9.34-29.877-7.837-12.107-18.932-16.607-32.985-13.745-8.557,1.732-17.042,3.82-25.615,5.441-12.258,2.317-22.76-1.226-31.261-10.344C428.843,423.128,426.708,419.292,427.91,413.44Z" transform="translate(-89.405 -86.481)"/><path class="b" d="M182.816,491.75c-2.989-.7-6.224-.909-8.881-2.254a9.49,9.49,0,0,1-4.191-5.283,5.143,5.143,0,0,1,3.622-6.287,63.933,63.933,0,0,1,11.957-2.586c6.469-.83,13.064-.87,19.486-1.969,8.7-1.495,14.86-7.22,20.324-13.855,2.9-3.519,6.271-6.667,9.49-9.909a5.638,5.638,0,0,1,2.61-1.582c1.582-.316,3.859-.894,4.69-.127,1.083,1.012,1.526,3.266,1.4,4.919-.324,4.46-2.95,7.908-5.971,10.977-13.555,13.76-29.593,23.124-48.6,27.109a43.226,43.226,0,0,1-5.836.427Z" transform="translate(-35.43 -93.61)"/><path class="c" d="M338.195,467.3c-1.107,7.972-1.5,15.16-3.211,22.025a37.161,37.161,0,0,1-19.953,25.1c-3.092,1.582-6.714,3.227-9.711.553s-1.431-6.572.134-9.253c2.974-5.085,5.971-10.668,10.392-14.282,6.849-5.591,8.77-12.479,8.96-20.522.087-3.907-.087-7.829.15-11.728a12.4,12.4,0,0,1,1.5-5.876c1.06-1.605,3.037-3.076,4.666-3.163,1.408-.047,3.749,1.756,4.16,3.163C336.669,458.155,337.372,463.129,338.195,467.3Z" transform="translate(-63.477 -94.162)"/><path class="d" d="M61.635,58.739c-.49,8.517-4.674,14.773-12.2,18.537a9.909,9.909,0,0,1-6.8.411c-8.818-2.863-14.259-9.023-15.888-18.236-1.661-9.348,8.762-22.365,18.189-22.3,2.546,0,5.433,1.756,7.552,3.464C58.163,45.185,61.793,51.029,61.635,58.739Z" transform="translate(-5.525 -7.771)"/><path class="e" d="M560.193,154.041c.862,4.168,1.669,8.051,2.57,12.416-2.119.791-4.294,1.692-6.54,2.372-2.807.862-3.654,2.372-2.436,5.18,1.368,3.163,2.523,6.327,3.907,9.877l-16.608,4.46c-.609-2.926-1.123-5.694-1.771-8.43-.791-3.456-1.724-3.851-5.109-2.815-2.594.791-5.243,1.392-8.051,2.119-1.407-5.117-2.728-9.933-4.136-15.073,3.013-.672,5.876-1.36,8.755-1.922s3.519-2.056,2.839-4.745c-.838-3.306-1.384-6.69-2.072-10.1,4.563-1.107,8.762-2.214,13.017-3.053a2.894,2.894,0,0,1,2.372,1.487,66.948,66.948,0,0,1,1.582,6.659c.569,2.372,1.882,3.519,4.508,2.863C555.219,154.793,557.528,154.516,560.193,154.041Z" transform="translate(-109.161 -30.19)"/><path class="f" d="M190.055,17.826c-.728,3.163-1.368,6.327-2.191,9.4-2.009,7.624-3.163,15.326,1.819,22.143a52.574,52.574,0,0,0,9.751,9.537c4.017,3.227,8.565,5.8,12.7,8.9,2.372,1.787,5.227,4.5,3.59,7.268-.791,1.3-5.536,1.242-7.987.4-13.246-4.531-23.464-12.463-27.291-26.682-2.863-10.621.617-20.142,5.623-29.261.554-1,1.9-1.582,2.879-2.372Z" transform="translate(-37.496 -3.592)"/><path class="g" d="M67.6,355.3c1.416-21.044,12.139-35.358,29.166-45.48,4.35-2.578,7.908-1.93,9.055.894,1.123,2.665-.846,5.457-5.251,7.291-3.163,1.321-6.414,2.372-9.529,3.8-7.117,3.219-10.629,9.023-11.451,16.663-.625,5.8-1.123,11.649-2.246,17.359a15.727,15.727,0,0,1-3.78,6.754c-1.922,2.222-4.041,1.645-4.9-1.147A42.456,42.456,0,0,1,67.6,355.3Z" transform="translate(-14.108 -64.468)"/><path class="h" d="M463.878,123.482c-7.987.791-18.529-4.642-21.2-12-1.621-4.46-1.242-7.315,2.246-10.581,6.24-5.852,13.1-9.79,22.032-6.327,8.3,3.242,13.238,13.286,10.795,21.858-1.075,3.788-5.362,6.675-10.486,7.023C466,123.561,464.732,123.482,463.878,123.482Z" transform="translate(-92.372 -19.512)"/><path class="i" d="M190.475,567.942c-.387-2.807-.7-5.172-1.028-7.536-.348-2.562-1.257-3.749-4.112-2.373a58.908,58.908,0,0,1-7.568,2.547l-3.907-16.758,7.054-.862c2.278-.277,2.792-1.764,2.42-3.717-.419-2.23-.941-4.445-1.495-6.991l14.607-2.562c.522,2.372,1.123,4.682,1.5,7.022.34,2.048,1.344,2.689,3.353,2.286,3.116-.625,6.255-1.1,9.49-1.653,1.416,5.053,2.8,9.98,4.231,15.026-3.606.751-7.165,1.526-10.739,2.222-1.914.372-2.246,1.186-1.748,3.163,2.064,7.956,1.969,7.979-6.232,9.268C194.532,567.357,192.721,567.61,190.475,567.942Z" transform="translate(-36.335 -110.798)"/><path class="j" d="M352.24,104.331c2.151-13.847,7.853-25.488,20.514-32.424,3.314-1.819,7.592-2.191,11.491-2.562,2.981-.285,4.278,2.523,2.372,4.919a20.355,20.355,0,0,1-4.824,4.294,71.012,71.012,0,0,1-7,3.685c-8.09,4.089-13.223,10.455-15.026,19.407-.522,2.562-.981,5.156-1.708,7.663-.277.965-1.131,2.309-1.9,2.436a3.226,3.226,0,0,1-2.578-1.669A32.645,32.645,0,0,1,352.24,104.331Z" transform="translate(-73.647 -14.501)"/><path class="k" d="M524.967,337.4c0,10.233-6.738,17.762-15.816,17.73-8.652,0-17.564-8.952-17.541-17.564,0-7.908,8.209-16.457,15.706-16.386C516.845,321.267,525,328.764,524.967,337.4Z" transform="translate(-102.8 -67.183)"/><path class="l" d="M352.77,518.168c2.214-4.049,4.152-8.28,6.746-12.06,1.581-2.277,4.666-1.376,5.14,1.392a14.851,14.851,0,0,1-.3,6.754c-3.013,9.49,0,17.082,6.659,23.725,2.839,2.855,5.979,5.433,8.525,8.517,1.4,1.7,1.85,4.191,2.728,6.327-2.372-.237-5.014.158-7.007-.791-12.028-5.947-19.344-15.437-20.941-29-.174-1.463-.49-2.918-.735-4.373Z" transform="translate(-73.758 -105.595)"/><path class="m" d="M38.791,287.6c-3.076.53-5.971,1.155-8.9,1.495-2.191.253-3.013,1.257-2.752,3.393.237,1.938.308,3.891.554,5.82s0,3.045-2.293,3.3c-3.037.324-6.034,1.036-9.363,1.637,0-3.163.071-6.01,0-8.873-.04-2.7-1.455-3.709-4.081-3.053L4.43,293.155l.055-13.673a42.278,42.278,0,0,1,5.536-.648c2.673,0,3.234-1.4,2.673-3.543-.633-2.436-1.5-4.8-2.372-7.576l11.72-3.954a76.152,76.152,0,0,1,1.534,7.829c.253,2.633,1.779,2.61,3.606,2.214,2.776-.609,5.536-1.321,8.81-2.119C36.933,277.022,37.842,282.186,38.791,287.6Z" transform="translate(-0.894 -55.172)"/><path class="n" d="M504.34,38.662l27.481-2.372c-3.282,9.261-6.445,18.189-9.79,27.608Z" transform="translate(-105.463 -7.591)"/><path class="o" d="M422.99,507.868c-6.54-5.022-13.294-10.376-20.237-15.469-2.246-1.645-2.372-3.258-.941-5.156,4.041-5.291,8.106-10.565,12.345-15.7,2.46-2.973,5.275-5.662,7.908-8.486l1.083.166Z" transform="translate(-83.821 -96.861)"/><path class="p" d="M83.145,135.31c9.213.087,17.572,5.631,23.8,14.788,1.1,1.582,2.807,4.033.561,5.441-1.376.87-4.2.435-5.892-.388C95.68,152.257,90,148.825,84.126,145.82c-4.705-2.428-9.34-1.914-13.642,1.147-2.428,1.724-4.65,3.788-7.212,5.291a22.308,22.308,0,0,1-6.9,2.7c-1.74.34-3.116-.546-1.969-2.942C58.282,143.906,71.923,135.247,83.145,135.31Z" transform="translate(-11.258 -28.303)"/><path class="q" d="M488.74,227.814c5.03-2.942,10.241-4.959,16.172-2.539a55.359,55.359,0,0,1,22.373,16.164c1.653,2.032,2.372,5.109,2.744,7.813.4,2.966-2.017,4.444-4.571,5.219a4.7,4.7,0,0,1-5.852-2.436c-2.111-3.685-4.1-7.442-6.1-11.2-3.464-6.54-9.079-9.292-16.259-9.759-2.918-.2-5.781-1.2-8.7-1.835Z" transform="translate(-102.16 -46.897)"/><path class="r" d="M137.235,440.916l-32.645,6.042,13.824-26.888C125.1,427.472,131.3,434.336,137.235,440.916Z" transform="translate(-21.845 -87.868)"/><path class="s" d="M420.036,30.107a15.723,15.723,0,0,1-3.812,10.281,7.193,7.193,0,0,1-2.515,2.293A41.518,41.518,0,0,1,408,43.962c.34-1.669.348-3.488,1.076-4.958,2.04-4.12,2.238-8.375,1.582-12.772-.49-3.29-1.131-6.564-1.542-9.862a13.221,13.221,0,0,1,0-5.14c.467-1.629,1.763-3.013,2.7-4.5,1.242.989,2.894,1.74,3.63,3.013C418.732,15.405,419.91,21.661,420.036,30.107Z" transform="translate(-85.311 -1.408)"/><path class="t" d="M202,111.572c0,1.495.269,2.633-.071,3.543a37.014,37.014,0,0,1-2.372,4.508c-1.447-.973-3.163-1.724-4.255-2.989a9.965,9.965,0,0,1-1.582-4.089,19.846,19.846,0,0,0-10.953-13.017,29.678,29.678,0,0,1-5.662-3.828,3.29,3.29,0,0,1-.846-2.713c.1-.49,1.479-.957,2.325-1.036C189.349,90.94,201.552,101.418,202,111.572Z" transform="translate(-36.83 -19.22)"/><path class="u" d="M116.269,518.06c-3.907.063-6.706-4.2-4.46-7.37a18.056,18.056,0,0,1,6.58-5.71c4.1-1.945,8.636-2.981,12.938-4.531,2.372-.846,2.7.411,2.372,2.167C132.915,507.439,120.927,517.981,116.269,518.06Z" transform="translate(-23.188 -104.625)"/><path class="v" d="M452.19,42.851,467,35.14c.933,5.915,1.827,11.57,2.744,17.4Z" transform="translate(-94.554 -7.35)"/><path class="w" d="M264.144,562.437c-3.511,0-4.152-2.238-3.851-4.429a44.107,44.107,0,0,1,2.372-9.624c1.779-4.682,7.537-7.26,11.506-5.536,3.25,1.408,3.385,2.91,1.17,5.615a46.226,46.226,0,0,0-5.148,7.956C268.683,559.249,267.023,561.662,264.144,562.437Z" transform="translate(-54.401 -113.438)"/><path class="x" d="M415.736,574.582c-7,0-13.325-6-13.009-12.029.071-1.352.9-2.665,1.392-3.994a33.832,33.832,0,0,1,3.646,1.582c3.638,2.032,7.315,4.025,10.795,6.327,1.582,1.028,2.752,2.689,4.112,4.057a43.575,43.575,0,0,1-4.46,3.764A6.054,6.054,0,0,1,415.736,574.582Z" transform="translate(-84.206 -116.837)"/><path class="y" d="M279.354,74.84l5.022,13.444-15.026-.791Z" transform="translate(-56.309 -15.655)"/><path class="z" d="M73.417,528.193,56.09,526.429l15.271-8.849C72.025,521.02,72.7,524.508,73.417,528.193Z" transform="translate(-11.7 -108.265)"/><path class="aa" d="M13.214,169.929c-3.8,0-7.6-4.025-7.465-7.908.111-3.266,3.5-4.745,7.813-5.046,4.12-.261,7.805,2.681,7.908,5.607C21.566,165.872,17.018,169.922,13.214,169.929Z" transform="translate(-1.169 -32.832)"/><path class="ab" d="M304.689,19c2.214,0,5.267,4.089,5.433,7.315.127,2.475-2.452,4.864-5.251,4.856-4.848,0-8.359-3.108-8.5-7.22C296.275,21.372,299.121,19.546,304.689,19Z" transform="translate(-61.96 -3.974)"/><path class="ac" d="M494.255,491.317c-.712,2.254-.87,3.709-1.582,4.816-1.495,2.372-3.725,4.089-6.619,3.124-2.7-.909-2.95-3.527-2.713-6.034.095-1.012.142-2.333.791-2.918a73.454,73.454,0,0,1,5.923-4.595Z" transform="translate(-101.056 -101.598)"/><path class="ad" d="M536.967,392.586c-2.372-1.337-5.03-2.373-7.062-4.136-1-.862-1.669-3.448-1.091-4.484.925-1.669,3.045-3.828,4.579-3.756a17.943,17.943,0,0,1,8.414,2.815c1.344.838,2.523,3.654,2.111,5.1s-2.839,2.483-4.484,3.535c-.5.316-1.344.111-2.025.15Z" transform="translate(-110.538 -79.53)"/><path class="ae" d="M61.717,402.784q-1.653,3.163-3.29,6.271c-1.819-1.526-4.2-2.736-5.3-4.666a9.419,9.419,0,0,1-.886-6.659c.4-1.392,2.9-2.815,4.587-2.981,1.068-.1,2.657,1.914,3.456,3.3.68,1.186.577,2.839.791,4.286Z" transform="translate(-10.843 -82.571)"/><path class="af" d="M126.1,104.79c3.385,0,7.189,3.527,6.659,5.876a5.876,5.876,0,0,1-3.234,3.662c-1.843.656-5.828-3.78-5.449-6.05C124.311,106.878,125.592,105.66,126.1,104.79Z" transform="translate(-25.915 -21.919)"/><path class="ag" d="M63.07,469.022c.791-4.389,1.495-8.074,2.183-11.752l7.473,7.6Z" transform="translate(-13.16 -95.649)"/><path class="ah" d="M552.323,285.618c.214-.372.664-2.183,1.7-2.633s2.768.308,3.828,1.068a12.835,12.835,0,0,1,3.733,3.954c.585,1.028.791,3.163.111,3.788a4.189,4.189,0,0,1-3.954.6C555.51,290.98,551.951,290.56,552.323,285.618Z" transform="translate(-115.494 -59.165)"/><path class="ai" d="M374.471,268.938s0,49.719-43.733,81.455-81.9,24.421-81.9,24.421-48.794-6.445-72.756-37.746-25.781-35.9-29.925-68.13c0,0,22.554,19.336,50.613,16.117s43.274-19.336,52.02-36.378,5.061-27.616,5.061-27.616,2.3-32.226-27.624-53.4c0,0-10.581-6.9-18.869-8.747,0,0,23.013-13.808,52.938-12.883s47.41,10.581,47.41,10.581-40.965,17.493-45.077,54.322,15.65,55.7,36.378,67.671,51.562,6.445,69.055-5.536Z" transform="translate(-30.541 -30.536)"/><path class="ai" d="M257.93,378.807a66.255,66.255,0,0,1-11.356-.791c-3.361-.459-51.111-7.5-75.508-39.407-24.191-31.633-26.493-36.892-30.779-70.217l-1.447-11.254,8.612,7.378c.206.182,21.526,18.047,47.3,15.1,22.285-2.562,38.189-13.689,48.636-34.005,7.639-14.883,4.927-23.867,4.808-24.247l-.3-.862.087-.83a55.4,55.4,0,0,0-2.523-17.54,59.565,59.565,0,0,0-23.195-31.973c-.854-.546-10.281-6.524-17.4-8.1l-10.676-2.372,9.379-5.631a110.348,110.348,0,0,1,55.358-13.507c30.621.941,48.636,10.716,49.387,11.127L316.135,156l-8.217,3.511c-.38.166-38.687,16.987-42.491,50.795-1.787,15.872.894,29.047,8.185,40.293,5.639,8.7,14.156,16.244,26.026,23.108,18.98,10.953,48.185,5.749,64.4-5.346l.1-.071,13.167-8.462v7.987c0,.538-.063,13.333-5.686,30.21a110.534,110.534,0,0,1-39.858,54.812C301,375.154,272.972,378.807,257.93,378.807ZM150.275,277.084c3.408,23.155,7.038,29.142,27.726,56.188,6.445,8.43,19.177,20.324,43.179,29.094a141.937,141.937,0,0,0,26.659,6.975l.253.047c.079,0,9.316,1.692,23.551-.387,13.112-1.93,33.3-7.465,55-23.282,30.842-22.4,39-54.345,41.123-69.434-18.98,12.321-50.8,17.493-72.542,4.927-13.1-7.56-22.57-16.038-28.976-25.915a61.921,61.921,0,0,1-9.174-24.073,55.525,55.525,0,0,1-5.963,18.284c-11.712,22.807-30.352,35.832-55.4,38.711C176.444,290.448,159.8,282.872,150.275,277.084ZM216.981,157.25a97.354,97.354,0,0,1,10.115,5.615l.134.095a68.427,68.427,0,0,1,29.213,49.5c.079-1.044.182-2.1.3-3.163,1.819-16.2,10.692-31.348,25.647-43.827a103.862,103.862,0,0,1,13.65-9.6,127.212,127.212,0,0,0-37.4-6.627C241.173,148.709,226.028,153.493,216.981,157.25Z" transform="translate(-29.009 -29.389)"/><path class="aj" d="M304.53,383.1l5.686,11.325a6.682,6.682,0,0,0,8.968,2.966h0a6.675,6.675,0,0,0,2.966-8.968l-5.686-11.309-5.971,3.005Z" transform="translate(-63.668 -78.882)"/><path d="M315.7,398.963a8.082,8.082,0,0,1-7.212-4.444l-6.327-12.535,14.4-7.244,6.327,12.535a8.066,8.066,0,0,1-7.189,11.688Zm-9.806-15.753,5.061,10.067a5.305,5.305,0,1,0,9.49-4.745l-5.069-10.067Z" transform="translate(-63.172 -78.386)"/><line class="aj" x2="6.88" y2="13.658" transform="translate(246.588 300.933)"/><path d="M312.677,379.75l5.647,14.274-8.114-13.033Z" transform="translate(-64.856 -79.434)"/><path class="ak" d="M392.6,295.83s-1.669,60.4-51.222,90.083-89.363,18.426-89.363,18.426L217.19,389.361s55.595,13.982,92.985-2.3c28.541-12.432,46.951-43.733,51.815-73.056C361.99,314,378.89,313.244,392.6,295.83Z" transform="translate(-45.398 -61.88)"/><path class="ak" d="M238.465,161.963s52.02-8.153,67.687,5.639L323.7,156.316s-33.847-13.784-69.593-10.028l-11.285,6.271-10.652,3.756Z" transform="translate(-48.532 -30.464)"/><path d="M277.49,380.633a44.049,44.049,0,0,1-43.5-37.169,3.076,3.076,0,0,1,6.073-.949,37.912,37.912,0,0,0,74.891,0,3.076,3.076,0,0,1,6.074.949,44.049,44.049,0,0,1-43.5,37.169Z" transform="translate(-48.909 -71.128)"/><path d="M259.836,409.424A118.686,118.686,0,0,1,141.41,298.561a4.365,4.365,0,0,1,8.7-.572,109.925,109.925,0,0,0,219.6-3.416v-.095l.142-4.16H373.8a4.326,4.326,0,0,1,3.329,1.265,4.389,4.389,0,0,1,1.265,3.393A118.663,118.663,0,0,1,259.773,409.424Z" transform="translate(-29.547 -60.726)"/><path d="M223.581,162.317a4.357,4.357,0,0,1-2.017-8.232,118.972,118.972,0,0,1,95.84-5.868,116.264,116.264,0,0,1,11.918,5.188,4.357,4.357,0,0,1-1.858,8.3H326.42l-.925-.467a111.131,111.131,0,0,0-11.127-4.848,109.925,109.925,0,0,0-88.786,5.433A4.342,4.342,0,0,1,223.581,162.317Z" transform="translate(-45.819 -29.458)"/><path class="al" d="M249.488,223.619a64.349,64.349,0,1,1-127-14.741h0c.364-1.542.791-3.068,1.25-4.563a64.365,64.365,0,0,1,124.049,4.563h0c.111.451.214.909.308,1.36A64.8,64.8,0,0,1,249.488,223.619Z" transform="translate(-25.233 -33.315)"/><path d="M183.988,291.171a68.8,68.8,0,0,1-67.015-83.938h0l.119-.49c.38-1.637.83-3.282,1.337-4.887a68.723,68.723,0,0,1,132.455,4.879l.119.5.214.973A68.8,68.8,0,0,1,184,291.179Zm-58.347-82.657-.055.237a59.984,59.984,0,1,0,117.09,1.273c-.087-.427-.182-.846-.277-1.257l-.127-.506a60,60,0,0,0-115.524-3.772C126.337,205.793,125.966,207.146,125.641,208.514Z" transform="translate(-24.083 -32.16)"/><path class="al" d="M249.488,223.619a64.349,64.349,0,1,1-127-14.741h0c.364-1.542.791-3.068,1.25-4.563a64.365,64.365,0,0,1,124.049,4.563h0c.111.451.214.909.308,1.36A64.8,64.8,0,0,1,249.488,223.619Z" transform="translate(-25.233 -33.315)"/><path d="M183.988,291.171a68.8,68.8,0,0,1-67.015-83.938h0l.119-.49c.38-1.637.83-3.282,1.337-4.887a68.723,68.723,0,0,1,132.455,4.879l.119.5.214.973A68.8,68.8,0,0,1,184,291.179Zm-58.347-82.657-.055.237a59.984,59.984,0,1,0,117.09,1.273c-.087-.427-.182-.846-.277-1.257l-.127-.506a60,60,0,0,0-115.524-3.772C126.337,205.793,125.966,207.146,125.641,208.514Z" transform="translate(-24.083 -32.16)"/><path class="am" d="M249.488,223.619a64.349,64.349,0,1,1-127-14.741h0c.364-1.542.791-3.068,1.25-4.563a64.365,64.365,0,0,1,124.049,4.563h0c.111.451.214.909.308,1.36A64.8,64.8,0,0,1,249.488,223.619Z" transform="translate(-25.233 -33.315)"/><path class="am" d="M183.988,291.171a68.8,68.8,0,0,1-67.015-83.938h0l.119-.49c.38-1.637.83-3.282,1.337-4.887a68.723,68.723,0,0,1,132.455,4.879l.119.5.214.973A68.8,68.8,0,0,1,184,291.179Zm-58.347-82.657-.055.237a59.984,59.984,0,1,0,117.09,1.273c-.087-.427-.182-.846-.277-1.257l-.127-.506a60,60,0,0,0-115.524-3.772C126.337,205.793,125.966,207.146,125.641,208.514Z" transform="translate(-24.083 -32.16)"/><path class="an" d="M232.43,178.35s29.466,54.78-12.89,89.308c0,0-21.17,18.41-68.13,9.205l17.96,11.507,30.376,3.685,35.777-14.63,17.628-31.862,2.3-20.72-1.384-17.026-12.89-20.72Z" transform="translate(-31.639 -37.306)"/><path d="M183.988,291.171a68.8,68.8,0,0,1-67.015-83.938h0l.119-.49c.38-1.637.83-3.282,1.337-4.887a68.723,68.723,0,0,1,132.455,4.879l.119.5.214.973A68.8,68.8,0,0,1,184,291.179Zm-58.347-82.657-.055.237a59.984,59.984,0,1,0,117.09,1.273c-.087-.427-.182-.846-.277-1.257l-.127-.506a60,60,0,0,0-115.524-3.772C126.337,205.793,125.966,207.146,125.641,208.514Z" transform="translate(-24.083 -32.16)"/><path class="am" d="M423.168,223.619a64.349,64.349,0,1,1-127-14.741h0c.364-1.542.791-3.068,1.25-4.563a64.365,64.365,0,0,1,124.049,4.563h0c.111.451.206.91.308,1.36A64.794,64.794,0,0,1,423.168,223.619Z" transform="translate(-61.563 -33.315)"/><path class="am" d="M357.669,291.171a68.8,68.8,0,0,1-67.015-83.938h0l.119-.49c.38-1.645.83-3.282,1.337-4.887a68.723,68.723,0,0,1,132.455,4.879l.118.5.214.973a68.8,68.8,0,0,1-67.22,82.973Zm-58.347-82.657-.055.229a59.984,59.984,0,1,0,117.09,1.273c-.087-.427-.182-.846-.277-1.257l-.127-.506a60,60,0,0,0-115.524-3.772C300.017,205.793,299.638,207.146,299.321,208.514Z" transform="translate(-60.412 -32.16)"/><path class="an" d="M406.48,178.35s29.458,54.78-12.89,89.308c0,0-21.178,18.41-68.13,9.205l17.952,11.507,30.383,3.685,35.777-14.63,17.62-31.862,2.3-20.72-1.384-17.026L415.25,187.1Z" transform="translate(-68.046 -37.306)"/><path d="M229.482,235.568a3.076,3.076,0,0,1-3.037-2.6,37.912,37.912,0,0,0-74.883,0,3.078,3.078,0,0,1-6.081-.949,44.065,44.065,0,0,1,87.046,0,3.076,3.076,0,0,1-2.562,3.511A3.405,3.405,0,0,1,229.482,235.568Z" transform="translate(-30.391 -40.756)"/><path d="M405.626,235.563a3.076,3.076,0,0,1-3.037-2.6,37.912,37.912,0,0,0-74.891,0,3.076,3.076,0,0,1-6.074-.949,44.057,44.057,0,0,1,87.038,0,3.06,3.06,0,0,1-2.562,3.511A3.161,3.161,0,0,1,405.626,235.563Z" transform="translate(-67.239 -40.751)"/><path d="M356.758,291.173a68.8,68.8,0,0,1-67.014-83.938h0l.119-.49c.38-1.645.83-3.282,1.336-4.887a68.731,68.731,0,0,1,132.463,4.879l.111.5.214.973a68.754,68.754,0,0,1-67.22,82.973Zm-58.347-82.657-.055.229a59.984,59.984,0,1,0,117.09,1.273c-.087-.427-.182-.846-.277-1.257l-.119-.506a60,60,0,0,0-115.524-3.772C299.084,205.8,298.736,207.148,298.411,208.516Z" transform="translate(-60.222 -32.162)"/><path class="ao" d="M178.725,170.64s-25.077,6.263-36.979,27.576S178.725,170.64,178.725,170.64Z" transform="translate(-29.227 -35.694)"/><path class="ao" d="M353.095,170.64s-25.077,6.263-36.979,27.576S353.095,170.64,353.095,170.64Z" transform="translate(-65.7 -35.694)"/></g></g></svg>