<svg xmlns="http://www.w3.org/2000/svg" xmlns:xlink="http://www.w3.org/1999/xlink" width="191.798" height="55.751" viewBox="0 0 191.798 55.751"><defs><style>.a{fill:#fff;}.b{fill:url(#a);}.c{fill:url(#b);}</style><linearGradient id="a" x1="0.25" y1="0.065" x2="0.75" y2="0.935" gradientUnits="objectBoundingBox"><stop offset="0" stop-color="#78ffd6"/><stop offset="1" stop-color="#007991"/></linearGradient><linearGradient id="b" x1="0.184" y1="-0.047" x2="0.816" y2="1.047" xlink:href="#a"/></defs><g transform="translate(-1121.601 -470.635)"><g transform="translate(466.101 108.531)"><path class="a" d="M693.729,364.1v8.283a1.8,1.8,0,0,1-1.991,1.991H680.986v41.494a1.805,1.805,0,0,1-1.992,1.992h-8.76a1.805,1.805,0,0,1-1.992-1.992V374.37H657.49a1.8,1.8,0,0,1-1.99-1.991V364.1a1.8,1.8,0,0,1,1.99-1.992h34.247A1.8,1.8,0,0,1,693.729,364.1Z"/><path class="b" d="M761.723,404.878A21.106,21.106,0,1,1,782.829,425.9,20.873,20.873,0,0,1,761.723,404.878Zm30.265,0c0-5.655-3.982-9.4-9.159-9.4s-9.159,3.743-9.159,9.4,3.982,9.4,9.159,9.4S791.988,410.533,791.988,404.878Z" transform="translate(-72.769 -14.899)"/><path class="a" d="M938.4,399.7v23.1a1.8,1.8,0,0,1-1.99,1.992H928.76a1.8,1.8,0,0,1-1.99-1.992v-1.137c-2.136,2.5-5.271,4.244-10.274,4.244-7.009,0-13.142-4.141-13.142-12.425s6.133-12.424,13.142-12.424c5,0,8.138,1.411,10.274,3.036V400.5c0-3.9-1.593-5.655-4.938-5.655-2.469,0-3.983.956-4.619,2.309-.478,1.115-.876,1.752-2.071,1.752h-7.8a1.8,1.8,0,0,1-1.991-2.071c1.036-8.6,8.362-12.982,16.486-12.982C930.592,383.852,938.4,388.949,938.4,399.7Zm-11.627,13.778c0-2.468-2.151-3.982-6.053-3.982-3.663,0-5.416,1.673-5.416,3.982s1.753,3.982,5.416,3.982C924.618,417.461,926.769,415.789,926.769,413.479Z" transform="translate(-169.794 -14.899)"/><path class="a" d="M1062.483,412.842c0,9.16-7.8,13.062-16.566,13.062-8.123,0-15.451-3.664-16.406-12.106a1.712,1.712,0,0,1,1.911-2.07h7.806c1.195,0,1.592.636,2.15,1.672.637,1.354,2.151,2.151,4.54,2.151,3.346,0,4.62-1.115,4.62-2.708,0-5.734-20.787-.478-20.787-15.929,0-9,7.8-13.061,16.167-13.061,7.407,0,14.655,3.663,15.61,12.106a1.711,1.711,0,0,1-1.911,2.07h-7.806c-1.194,0-1.592-.637-2.15-1.751a3.825,3.825,0,0,0-3.744-2.071c-2.946,0-4.221,1.115-4.221,2.708C1041.7,402.807,1062.483,397.312,1062.483,412.842Z" transform="translate(-256.206 -14.899)"/><path class="a" d="M1164.005,381.9v7.487a1.8,1.8,0,0,1-1.99,1.991h-4.381v26.361a1.8,1.8,0,0,1-1.991,1.991h-7.965a1.8,1.8,0,0,1-1.99-1.991V391.374h-4.38a1.8,1.8,0,0,1-1.991-1.991V381.9a1.8,1.8,0,0,1,1.991-1.99h4.38V369.153a1.8,1.8,0,0,1,1.99-1.992h7.965a1.8,1.8,0,0,1,1.991,1.992V379.9h4.381A1.8,1.8,0,0,1,1164.005,381.9Z" transform="translate(-331.443 -3.464)"/><path class="c" d="M1224.04,481.089v-8.761a1.8,1.8,0,0,1,1.99-1.991h8.762a1.8,1.8,0,0,1,1.99,1.991v8.761a1.8,1.8,0,0,1-1.99,1.991h-8.762A1.8,1.8,0,0,1,1224.04,481.089Z" transform="translate(-389.484 -74.146)"/></g></g></svg>